<svg width="753" height="217" viewBox="0 0 753 217" fill="none" xmlns="http://www.w3.org/2000/svg">
<path d="M667.307 150.146C659.307 145.546 652.907 139.146 648.507 131.146C644.107 123.146 641.907 114.146 641.907 104.146C641.907 94.5461 644.107 85.9461 648.707 77.9461C653.307 70.1461 659.507 63.9461 667.507 59.5461C675.507 55.1461 684.307 52.7461 694.107 52.7461C704.707 52.7461 713.707 55.1461 721.107 59.9461C728.307 64.7461 733.907 71.1461 737.507 79.1461C740.965 86.8307 742.762 95.2534 742.899 104.414C742.909 105.139 742.619 105.834 742.107 106.346V106.346C741.595 106.858 740.9 107.146 740.176 107.146H671.907C669.146 107.146 666.859 109.397 667.254 112.13C667.827 116.102 669.112 119.725 671.107 123.146C673.907 127.946 677.707 131.546 682.907 134.346C687.907 137.146 693.707 138.346 700.507 138.346C716.677 138.346 729.152 131.93 737.934 118.906C738.18 118.542 738.514 118.243 738.907 118.046V118.046C739.543 117.728 740.285 117.697 740.945 117.961L741.996 118.382C742.576 118.614 743.032 119.08 743.252 119.665V119.665C743.418 120.108 743.439 120.593 743.306 121.046C740.059 132.115 734.13 140.882 725.707 147.346C716.907 153.946 706.707 157.146 694.707 157.146C684.307 157.146 675.307 154.946 667.307 150.146ZM708.707 94.3461C711.507 94.3461 713.507 93.7461 714.707 92.3461C715.907 90.9461 716.707 89.1461 716.707 86.9461C716.707 80.5461 714.507 75.3461 710.507 71.3461C706.307 67.5461 700.907 65.5461 694.307 65.5461C686.507 65.5461 680.107 68.3461 675.107 73.5461C670.366 78.477 667.603 84.4869 666.988 91.5759C666.924 92.3194 667.208 93.0474 667.736 93.5751V93.5751C668.23 94.0688 668.899 94.3461 669.597 94.3461H708.707Z" fill="#1E1E1E"/>
<path d="M595.149 149.945C589.549 145.145 586.949 137.745 586.949 127.945V71.3453C586.949 69.6885 585.606 68.3453 583.949 68.3453H573.28C572.556 68.3453 571.861 68.0575 571.349 67.5453V67.5453C570.837 67.0331 570.549 66.3384 570.549 65.614V64.7637C570.549 63.243 571.272 61.813 572.496 60.9113L587.035 50.205C589.815 48.1576 592.376 45.8278 594.676 43.2527L607.173 29.2623C607.921 28.4244 608.991 27.9453 610.115 27.9453H610.618C611.342 27.9453 612.037 28.2331 612.549 28.7453V28.7453C613.061 29.2576 613.349 29.9523 613.349 30.6767V51.5453C613.349 53.7545 615.14 55.5453 617.349 55.5453H637.418C638.142 55.5453 638.837 55.8331 639.349 56.3453V56.3453C639.861 56.8576 640.149 57.5523 640.149 58.2767V65.614C640.149 66.3384 639.861 67.0331 639.349 67.5453V67.5453C638.837 68.0575 638.142 68.3453 637.418 68.3453H619.349C616.035 68.3453 613.349 71.0316 613.349 74.3453V129.745C613.349 133.745 614.349 136.945 616.549 138.945C618.549 140.945 621.349 141.945 624.749 141.945C630.114 141.945 634.194 139.376 637.34 133.885C637.611 133.413 638.03 133.04 638.539 132.849V132.849C639.06 132.654 639.636 132.66 640.153 132.867L642.554 133.827C643.066 134.032 643.485 134.418 643.732 134.911V134.911C643.999 135.445 644.044 136.068 643.845 136.631C638.958 150.432 629.659 157.145 615.949 157.145C607.549 157.145 600.749 154.745 595.149 149.945Z" fill="#1E1E1E"/>
<path d="M539.687 37.1461C536.487 33.9461 534.887 29.9461 534.887 25.3461C534.887 20.7461 536.487 16.7461 539.687 13.5461C542.887 10.3461 546.887 8.74609 551.487 8.74609C556.087 8.74609 560.087 10.3461 563.287 13.5461C566.487 16.7461 568.087 20.7461 568.087 25.3461C568.087 29.9461 566.487 33.9461 563.287 37.1461C560.087 40.3461 556.087 41.9461 551.487 41.9461C546.887 41.9461 542.887 40.3461 539.687 37.1461ZM526.887 153.546C526.374 153.034 526.087 152.339 526.087 151.615V145.078C526.087 144.353 526.374 143.658 526.887 143.146V143.146C527.399 142.634 528.094 142.346 528.818 142.346H530.087C532.087 142.346 533.887 141.546 535.487 139.946C537.087 138.346 538.087 136.346 538.087 134.346V83.9461C538.087 81.9461 537.087 80.1461 535.487 78.5461C533.887 76.9461 532.087 75.9461 530.087 75.9461H528.818C528.094 75.9461 527.399 75.6583 526.887 75.1461V75.1461C526.374 74.6339 526.087 73.9391 526.087 73.2147V70.0145C526.087 69.321 526.312 68.6462 526.728 68.0914V68.0914C527.093 67.6046 527.589 67.2318 528.158 67.0165L556.777 56.1927C557.907 55.7652 559.106 55.5461 560.315 55.5461H563.175C564.015 55.5461 564.82 55.8797 565.414 56.4734V56.4734C566.092 57.1516 566.426 58.1007 566.323 59.0542L564.487 75.9461V134.346C564.487 136.346 565.287 138.346 566.887 139.946C568.487 141.546 570.487 142.346 572.487 142.346H573.755C574.48 142.346 575.174 142.634 575.687 143.146V143.146C576.199 143.658 576.487 144.353 576.487 145.078V151.615C576.487 152.339 576.199 153.034 575.687 153.546V153.546C575.174 154.058 574.48 154.346 573.755 154.346H528.818C528.094 154.346 527.399 154.058 526.887 153.546V153.546Z" fill="#1E1E1E"/>
<path d="M408.441 153.561C407.929 153.049 407.641 152.354 407.641 151.63V145.092C407.641 144.368 407.929 143.673 408.441 143.161V143.161C408.954 142.649 409.648 142.361 410.373 142.361H415.641C417.641 142.361 419.441 141.561 421.041 139.961C422.641 138.361 423.641 136.361 423.641 134.361V34.3613C423.641 32.3613 422.641 30.5613 421.041 28.9613C419.441 27.3613 417.641 26.3613 415.641 26.3613H410.373C409.648 26.3613 408.954 26.0735 408.441 25.5613V25.5613C407.929 25.0491 407.641 24.3543 407.641 23.6299V20.1543C407.641 17.6522 409.248 15.4328 411.624 14.6508V14.6508C412.208 14.4586 412.819 14.3607 413.434 14.3605L461.518 14.3469C462.125 14.3468 462.729 14.4265 463.316 14.5841V14.5841C466.34 15.3965 468.441 18.1377 468.441 21.2687V23.6299C468.441 24.3543 468.154 25.0491 467.641 25.5613V25.5613C467.129 26.0735 466.434 26.3613 465.71 26.3613H460.041C458.041 26.3613 456.041 27.3613 454.441 28.9613C452.841 30.5613 452.041 32.3613 452.041 34.3613V134.361C452.041 136.361 452.841 138.361 454.441 139.961C456.041 141.561 458.041 142.361 460.041 142.361H481.041C491.241 142.361 499.041 139.561 504.241 133.961C509.241 128.577 512.392 121.343 513.338 112.616C513.412 111.936 513.706 111.296 514.19 110.813V110.813C514.735 110.268 515.474 109.961 516.245 109.961H522.744C523.435 109.961 524.085 110.286 524.5 110.839V110.839C524.847 111.302 524.997 111.883 524.918 112.456L519.835 149.259C519.537 151.415 518.078 153.234 516.037 153.992V153.992C515.378 154.236 514.682 154.361 513.98 154.361H410.373C409.648 154.361 408.954 154.073 408.441 153.561V153.561Z" fill="#1E1E1E"/>
<path d="M207.774 152.746V143.946L209.374 142.346H211.774C213.774 142.346 215.574 141.546 217.174 139.946C218.774 138.346 219.774 136.346 219.774 134.346V83.9461C219.774 81.9461 218.774 80.1461 217.174 78.5461C215.574 76.9461 213.774 75.9461 211.774 75.9461H210.506C209.781 75.9461 209.086 75.6583 208.574 75.1461V75.1461C208.062 74.6339 207.774 73.9391 207.774 73.2147V69.9115C207.774 69.2848 207.977 68.6751 208.353 68.1738V68.1738C208.755 67.6386 209.329 67.2588 209.979 67.0991L223.427 63.7928C225.38 63.3127 227.294 62.686 229.153 61.918L243.382 56.0385C244.104 55.7404 244.934 55.9059 245.486 56.4578V56.4578C245.919 56.8907 246.121 57.5033 246.03 58.1088L244.896 65.7104C244.735 66.7867 246.341 67.4245 247.046 66.595C250.011 63.1023 253.814 60.0996 258.374 57.7461C264.374 54.5461 270.774 52.7461 277.374 52.7461C284.574 52.7461 290.774 54.1461 296.374 56.9461C301.774 59.7461 305.574 63.9461 307.774 69.5461C315.174 58.3461 325.974 52.7461 340.374 52.7461C349.974 52.7461 357.574 55.5461 363.374 61.1461C369.174 66.7461 372.174 74.5461 372.174 84.1461V134.346C372.174 136.346 372.974 138.346 374.574 139.946C376.174 141.546 378.174 142.346 380.174 142.346H381.443C382.167 142.346 382.862 142.634 383.374 143.146V143.146C383.886 143.658 384.174 144.353 384.174 145.077V151.615C384.174 152.339 383.886 153.034 383.374 153.546V153.546C382.862 154.058 382.167 154.346 381.443 154.346H335.374V154.346C334.35 153.322 333.774 151.932 333.774 150.483V145.077C333.774 144.353 334.062 143.658 334.574 143.146V143.146C335.086 142.634 335.781 142.346 336.506 142.346H337.774C339.774 142.346 341.574 141.546 343.174 139.946C344.774 138.346 345.774 136.346 345.774 134.346V87.9461C345.774 81.7461 344.374 76.9461 341.774 73.5461C339.174 70.3461 335.374 68.5461 330.174 68.5461C324.174 68.5461 319.174 70.9461 315.174 75.7461C311.174 80.5461 309.174 86.7461 309.174 94.7461V134.346C309.174 136.346 309.974 138.346 311.574 139.946C313.174 141.546 315.174 142.346 317.174 142.346H318.443C319.167 142.346 319.862 142.634 320.374 143.146V143.146C320.886 143.658 321.174 144.353 321.174 145.077V151.615C321.174 152.339 320.886 153.034 320.374 153.546V153.546C319.862 154.058 319.167 154.346 318.443 154.346H273.506C272.781 154.346 272.086 154.058 271.574 153.546V153.546C271.062 153.034 270.774 152.339 270.774 151.615V145.077C270.774 144.353 271.062 143.658 271.574 143.146V143.146C272.086 142.634 272.781 142.346 273.506 142.346H274.774C276.774 142.346 278.574 141.546 280.174 139.946C281.774 138.346 282.774 136.346 282.774 134.346V87.9461C282.774 75.1461 277.574 68.5461 267.374 68.5461C261.374 68.5461 256.174 70.9461 252.174 75.7461C248.174 80.5461 246.174 86.7461 246.174 94.7461V134.346C246.174 136.346 246.974 138.346 248.574 139.946C250.174 141.546 252.174 142.346 254.174 142.346H256.574L258.174 143.946V152.746L256.574 154.346H209.374L207.774 152.746Z" fill="#1E1E1E"/>
<path d="M151.512 153.546C150.999 153.034 150.712 152.339 150.712 151.615V145.077C150.712 144.353 150.999 143.658 151.512 143.146V143.146C152.024 142.634 152.719 142.346 153.443 142.346H154.712C156.712 142.346 158.512 141.546 160.112 139.946C161.712 138.346 162.712 136.346 162.712 134.346V83.9459C162.712 81.9459 161.712 80.1459 160.112 78.5459C158.512 76.9459 156.712 75.9459 154.712 75.9459H153.443C152.719 75.9459 152.024 75.6581 151.512 75.1459V75.1459C150.999 74.6337 150.712 73.9389 150.712 73.2145V70.0143C150.712 69.3208 150.937 68.646 151.353 68.0912V68.0912C151.718 67.6044 152.214 67.2316 152.783 67.0163L181.402 56.1925C182.532 55.765 183.731 55.5459 184.94 55.5459H187.8C188.64 55.5459 189.445 55.8795 190.039 56.4732V56.4732C190.717 57.1514 191.051 58.1005 190.948 59.054L189.112 75.9459V134.346C189.112 136.346 189.912 138.346 191.512 139.946C193.112 141.546 195.112 142.346 197.112 142.346H198.38C199.105 142.346 199.799 142.634 200.312 143.146V143.146C200.824 143.658 201.112 144.353 201.112 145.077V151.615C201.112 152.339 200.824 153.034 200.312 153.546V153.546C199.799 154.058 199.105 154.346 198.38 154.346H153.443C152.719 154.346 152.024 154.058 151.512 153.546V153.546Z" fill="#1E1E1E"/>
<path d="M94.6585 153.72C94.0997 153.235 93.7788 152.532 93.7788 151.792V146.482C93.7788 145.742 94.0997 145.039 94.6585 144.554V144.554C95.123 144.15 95.7175 143.928 96.3327 143.928H97.7788C99.7788 143.928 101.579 143.234 103.179 141.845C104.779 140.456 105.779 138.719 105.779 136.983V53.9907C105.779 52.2544 104.779 50.6918 103.179 49.3028C101.579 47.9138 99.7788 47.0457 97.7788 47.0457H96.3327C95.7175 47.0457 95.123 46.8236 94.6585 46.4203V46.4203C94.0997 45.9352 93.7788 45.2317 93.7788 44.4918V42.0206C93.7788 41.3421 94.0229 40.6863 94.4664 40.1729V40.1729C94.8017 39.7848 95.2362 39.4953 95.7235 39.3353L124.355 29.9346C125.563 29.538 126.827 29.3359 128.098 29.3359H131.492C132.193 29.3359 132.87 29.5889 133.4 30.0484V30.0484C133.887 30.4714 134.132 31.1089 134.053 31.7493L132.179 47.0457V136.983C132.179 138.719 132.979 140.456 134.579 141.845C136.179 143.234 138.179 143.928 140.179 143.928H141.625C142.24 143.928 142.835 144.15 143.299 144.554V144.554C143.858 145.039 144.179 145.742 144.179 146.482V151.792C144.179 152.532 143.858 153.235 143.299 153.72V153.72C142.835 154.124 142.24 154.346 141.625 154.346H96.3327C95.7175 154.346 95.123 154.124 94.6585 153.72V153.72Z" fill="#1E1E1E"/>
<path d="M19.5764 153.904C12.8852 151.939 7.44104 148.979 2.63457 145.633C1.99513 145.188 1.46508 144.605 1.06764 143.935V143.935C0.501573 142.981 0.22911 141.881 0.284252 140.773L1.43683 117.608C1.48352 116.67 1.9003 115.789 2.59581 115.157V115.157C3.24877 114.564 4.09906 114.236 4.98095 114.236H9.89249C11.2574 114.236 12.5735 114.744 13.5841 115.662V115.662C13.9251 115.971 14.1356 116.399 14.182 116.857C15.1142 126.05 18.2376 133.241 23.3578 138.075C28.3997 143.224 34.702 145.703 41.8446 145.703C48.357 145.703 53.3989 143.796 57.1803 139.601C60.7516 135.405 62.6423 130.637 62.6423 125.107C62.6423 119.957 61.5919 115.571 59.7012 112.138C57.6005 108.705 54.8694 105.654 51.2981 102.984C47.5167 100.505 42.6849 97.8349 36.3826 94.9743C24.8283 89.8251 16.2152 84.1037 10.333 77.6196C4.45082 71.1354 1.50973 63.6977 1.50973 54.925C1.50973 47.4873 3.61051 41.0032 7.81206 35.2818C12.0136 29.7512 17.6857 25.5556 24.8283 22.6949C31.7609 19.8343 39.1136 18.3086 47.0966 18.3086C60.6567 18.3086 71.682 21.1407 79.9847 26.8049C80.6091 27.2309 81.1325 27.7857 81.5493 28.4163V28.4163V28.4163C81.9616 29.0401 82.1958 29.7647 82.2265 30.5118L83.1661 53.3725C83.2066 54.3564 82.8085 55.3076 82.0794 55.9695V55.9695C81.4679 56.5246 80.6716 56.8321 79.8457 56.8321H75.015C74.0828 56.8321 73.184 56.485 72.4938 55.8584V55.8584C71.8303 55.2561 71.409 54.4346 71.2773 53.5482C70.1317 45.8421 67.6846 40.0076 64.1129 36.0447C60.3315 31.8491 55.0795 29.7512 48.5671 29.7512C42.6849 29.7512 37.8532 31.4676 34.2818 34.9004C30.7105 38.3332 29.0299 42.7196 29.0299 47.8687C29.0299 53.2086 30.9206 57.7857 34.9121 61.5999C38.6935 65.4141 45.416 69.419 54.6594 73.424C67.264 79.1453 76.5074 85.4387 82.3896 91.9229C88.2718 98.407 91.2129 106.989 91.2129 117.287C91.2129 124.344 89.1121 130.828 85.3307 136.931C81.3392 143.033 75.6671 147.992 68.5245 151.615C61.1718 155.43 52.7687 157.146 43.1051 157.146C34.702 157.146 26.719 156.192 19.5764 153.904Z" fill="#1E1E1E"/>
<path d="M193.212 10.6242C164.296 8.31058 154.063 31.0237 152.06 45.852C151.779 47.9274 153.332 49.7563 155.422 49.8918C185.963 51.8716 195.333 29.1144 196.518 14.4495C196.678 12.4722 195.19 10.7824 193.212 10.6242Z" fill="#1E1E1E"/>
<path d="M568.509 207.579V205.819L568.829 205.499H570.109C570.509 205.499 570.869 205.339 571.189 205.019C571.509 204.699 571.709 204.299 571.709 203.899V183.899C571.709 183.499 571.509 183.139 571.189 182.819C570.869 182.499 570.509 182.299 570.109 182.299H568.829L568.509 181.979V180.219L568.829 179.899H588.989L589.309 180.219V181.499L587.989 186.059L587.669 186.379H586.229L585.909 186.059C585.749 184.859 585.349 183.939 584.709 183.299C584.069 182.659 583.229 182.299 582.189 182.299H578.989C578.589 182.299 578.189 182.499 577.869 182.819C577.549 183.139 577.389 183.499 577.389 183.899V192.299H581.829C582.229 192.299 582.589 192.139 582.909 191.779C583.229 191.459 583.429 191.099 583.429 190.699V190.219L583.749 189.899H585.509L585.829 190.219V196.779L585.509 197.099H583.749L583.429 196.779V196.299C583.429 195.899 583.229 195.539 582.909 195.219C582.589 194.899 582.229 194.699 581.829 194.699H577.389V203.899C577.389 204.299 577.549 204.699 577.869 205.019C578.189 205.339 578.589 205.499 578.989 205.499H582.589C584.549 205.499 585.949 205.019 586.789 204.019C587.589 203.019 588.109 201.739 588.269 200.139L588.589 199.819H590.349L590.589 200.139L589.989 207.579L589.669 207.899H568.829L568.509 207.579ZM595.514 207.979C594.354 207.659 593.354 207.259 592.554 206.699L592.354 206.299L593.434 201.899L593.754 201.579H595.114L595.434 201.899C595.434 203.259 595.754 204.339 596.394 205.139C597.034 205.939 597.954 206.299 599.114 206.299C600.074 206.299 600.794 206.019 601.274 205.459C601.754 204.899 601.994 204.259 601.994 203.459C601.994 202.539 601.754 201.819 601.274 201.299C600.794 200.819 599.954 200.339 598.754 199.859C596.754 199.099 595.274 198.219 594.314 197.219C593.354 196.259 592.914 195.059 592.914 193.699C592.914 191.859 593.594 190.379 594.954 189.259C596.314 188.139 598.074 187.579 600.194 187.579C602.034 187.579 603.674 187.979 605.114 188.699L605.394 189.099L605.594 193.579L605.274 193.899H603.754L603.434 193.579C603.194 191.059 602.074 189.779 600.154 189.779C599.434 189.779 598.794 190.019 598.314 190.459C597.794 190.899 597.554 191.499 597.554 192.219C597.554 193.019 597.874 193.739 598.554 194.339C599.194 194.939 600.274 195.539 601.794 196.139C603.394 196.819 604.674 197.579 605.554 198.419C606.434 199.299 606.874 200.499 606.874 202.019C606.874 204.099 606.114 205.699 604.674 206.819C603.234 207.939 601.434 208.459 599.354 208.459C597.954 208.459 596.674 208.299 595.514 207.979ZM612.175 207.019C611.055 206.059 610.535 204.579 610.535 202.619V190.699H607.575L607.255 190.379V189.499L614.815 182.619H615.495L615.815 182.939V188.139H620.855L621.175 188.459V190.379L620.855 190.699H615.815V202.979C615.815 203.779 616.015 204.419 616.455 204.819C616.855 205.219 617.415 205.419 618.095 205.419C619.215 205.419 620.055 204.859 620.695 203.659L621.015 203.539L621.815 203.859L621.975 204.179C621.015 207.059 619.135 208.459 616.335 208.459C614.655 208.459 613.295 207.979 612.175 207.019ZM623.957 207.579C623.357 206.979 623.077 206.259 623.077 205.419C623.077 204.579 623.357 203.859 623.957 203.219C624.557 202.619 625.277 202.299 626.117 202.299C626.957 202.299 627.677 202.619 628.317 203.219C628.917 203.859 629.237 204.579 629.237 205.419C629.237 206.259 628.917 206.979 628.317 207.579C627.677 208.179 626.957 208.459 626.117 208.459C625.277 208.459 624.557 208.179 623.957 207.579ZM638.605 207.467L644.221 201.059C646.381 198.611 647.857 196.487 648.649 194.615C649.441 192.779 649.837 191.195 649.837 189.899C649.837 188.495 649.441 187.379 648.685 186.551C647.929 185.723 646.885 185.291 645.553 185.291C644.041 185.291 642.817 185.795 641.881 186.803C640.945 187.811 640.369 188.999 640.225 190.367L639.937 190.655H639.001L638.713 190.367C638.641 189.215 638.893 187.991 639.469 186.731C640.009 185.471 640.909 184.391 642.205 183.527C643.501 182.663 645.157 182.195 647.173 182.195C649.621 182.195 651.565 182.879 653.041 184.211C654.517 185.543 655.273 187.307 655.273 189.539C655.273 190.871 654.949 192.203 654.301 193.535C653.653 194.903 652.609 196.379 651.097 197.999C649.585 199.655 647.569 201.491 644.977 203.579H649.009C650.269 203.579 651.241 203.435 651.961 203.111C652.681 202.787 653.185 202.319 653.509 201.743C653.797 201.167 654.013 200.411 654.157 199.475L654.445 199.187H656.029L656.245 199.475L655.705 207.611L655.417 207.899H638.893L638.605 207.467ZM663.24 206.711C661.548 205.595 660.252 204.047 659.352 202.031C658.416 200.051 657.984 197.819 657.984 195.299C657.984 192.815 658.416 190.583 659.352 188.567C660.252 186.587 661.548 185.039 663.24 183.887C664.896 182.771 666.876 182.195 669.108 182.195C671.34 182.195 673.284 182.771 674.976 183.887C676.632 185.039 677.928 186.587 678.864 188.567C679.764 190.583 680.232 192.815 680.232 195.299C680.232 197.819 679.764 200.051 678.864 202.031C677.928 204.047 676.632 205.595 674.976 206.711C673.284 207.863 671.34 208.403 669.108 208.403C666.876 208.403 664.896 207.863 663.24 206.711ZM673.32 203.075C674.328 201.239 674.832 198.647 674.832 195.299C674.832 191.987 674.328 189.395 673.32 187.559C672.312 185.723 670.908 184.787 669.108 184.787C667.308 184.787 665.904 185.723 664.896 187.559C663.888 189.395 663.384 191.987 663.384 195.299C663.384 198.647 663.888 201.239 664.896 203.075C665.904 204.911 667.308 205.811 669.108 205.811C670.908 205.811 672.312 204.911 673.32 203.075ZM682.512 207.611V206.027L682.8 205.739H683.88C684.24 205.739 684.564 205.595 684.852 205.307C685.14 205.019 685.32 204.659 685.32 204.299V189.755C685.32 189.323 685.176 188.999 684.96 188.747C684.708 188.495 684.384 188.351 684.024 188.351C683.52 188.351 683.088 188.531 682.728 188.819H682.44L681.756 187.703L681.792 187.415L688.74 182.699H690.072L690.432 183.059V204.407C690.468 204.767 690.648 205.055 690.936 205.343C691.224 205.631 691.512 205.739 691.872 205.739H693.024L693.312 206.027V207.611L693.024 207.899H682.8L682.512 207.611ZM697.017 205.271C695.289 203.183 694.461 200.339 694.461 196.739C694.461 194.183 694.821 191.807 695.613 189.611C696.369 187.415 697.557 185.615 699.213 184.247C700.833 182.879 702.885 182.195 705.369 182.195C707.241 182.195 708.825 182.735 710.049 183.779C711.273 184.823 711.993 186.191 712.209 187.919L711.921 188.207H710.949L710.661 187.919C710.193 186.875 709.581 186.083 708.825 185.579C708.069 185.075 707.133 184.823 706.017 184.823C704.037 184.823 702.525 185.687 701.445 187.415C700.365 189.143 699.789 191.339 699.717 193.967C700.293 193.283 701.049 192.707 701.985 192.275C702.921 191.843 703.965 191.591 705.117 191.591C706.701 191.591 708.105 191.951 709.329 192.599C710.553 193.247 711.489 194.183 712.173 195.407C712.857 196.631 713.217 198.071 713.217 199.727C713.217 201.455 712.821 203.003 712.029 204.299C711.237 205.631 710.157 206.639 708.789 207.359C707.421 208.079 705.909 208.403 704.253 208.403C701.121 208.403 698.709 207.359 697.017 205.271ZM707.025 204.335C707.781 203.255 708.177 201.851 708.177 200.087C708.177 198.359 707.781 196.919 707.025 195.839C706.269 194.759 705.261 194.219 704.001 194.219C702.705 194.219 701.697 194.759 700.941 195.839C700.185 196.919 699.825 198.359 699.825 200.087C699.825 201.851 700.185 203.255 700.941 204.335C701.697 205.415 702.705 205.955 704.001 205.955C705.261 205.955 706.269 205.415 707.025 204.335Z" fill="#1E1E1E"/>
<circle cx="736.167" cy="28.6867" r="15.74" stroke="#1E1E1E" stroke-width="1.2"/>
<path d="M730.767 35.5425V34.7505L730.911 34.6065H731.487C731.667 34.6065 731.829 34.5345 731.973 34.3905C732.117 34.2465 732.207 34.0665 732.207 33.8865V24.8865C732.207 24.7065 732.117 24.5445 731.973 24.4005C731.829 24.2565 731.667 24.1665 731.487 24.1665H730.911L730.767 24.0225V23.2305L730.911 23.0865H736.185C737.589 23.0865 738.705 23.4105 739.533 24.0225C740.361 24.6525 740.775 25.5525 740.775 26.7225C740.775 27.7125 740.433 28.5225 739.785 29.1345C739.119 29.7465 738.219 30.1425 737.103 30.3045L738.417 30.6825L740.487 34.1925C740.649 34.4805 740.865 34.6065 741.135 34.6065H741.711L741.855 34.7505V35.5425L741.711 35.6865H738.705L738.471 35.5425L735.375 30.3585H734.763V33.8865C734.763 34.0665 734.835 34.2465 734.979 34.3905C735.123 34.5345 735.303 34.6065 735.483 34.6065H736.059L736.203 34.7505V35.5425L736.059 35.6865H730.911L730.767 35.5425ZM735.969 29.2785C736.725 29.2785 737.301 29.0625 737.661 28.5945C738.021 28.1445 738.219 27.5145 738.219 26.7225C738.219 25.9305 738.021 25.3185 737.661 24.8505C737.301 24.4005 736.725 24.1665 735.969 24.1665H735.483C735.303 24.1665 735.123 24.2565 734.979 24.4005C734.835 24.5445 734.763 24.7065 734.763 24.8865V29.2785H735.969Z" fill="#1E1E1E"/>
</svg>
