<svg width="1096" height="317" viewBox="0 0 1096 317" fill="none" xmlns="http://www.w3.org/2000/svg">
<path d="M951.535 316.91C945.058 316.91 939.475 316.24 934.785 314.9C930.318 313.783 926.633 312.443 923.73 310.88V270.01C929.313 272.69 935.567 274.03 942.49 274.03C949.637 274.03 955.667 272.355 960.58 269.005C965.717 265.878 969.96 260.295 973.31 252.255L978 241.535L911 76.3799H962.59L1003.79 187.265L1045.67 76.3799H1095.92L1021.89 256.275C1013.18 277.715 1003.13 293.125 991.735 302.505C980.568 312.108 967.168 316.91 951.535 316.91Z" fill="#1E1E1E"/>
<path d="M863.035 27.8052V76.3802H904.91V116.58H863.035V177.215C863.035 186.149 864.933 192.514 868.73 196.31C872.75 200.107 878.78 202.005 886.82 202.005C889.946 202.005 893.073 201.67 896.2 201C899.326 200.107 902.23 198.767 904.91 196.98V239.19C901.113 240.977 896.423 242.54 890.84 243.88C885.256 245.22 878.556 245.89 870.74 245.89C853.32 245.89 839.585 240.865 829.535 230.815C819.485 220.542 814.46 206.137 814.46 187.6V116.58H791.01V76.3802H814.46V56.8701L863.035 27.8052Z" fill="#1E1E1E"/>
<path d="M730.09 241.87V76.38H779V241.87H730.09ZM783.02 28.475C783.02 32.2717 782.238 35.9567 780.675 39.53C779.335 42.88 777.325 45.895 774.645 48.575C772.188 51.0317 769.173 53.0417 765.6 54.605C762.25 56.1683 758.565 56.95 754.545 56.95C750.525 56.95 746.728 56.1683 743.155 54.605C739.805 53.0417 736.79 51.0317 734.11 48.575C731.653 45.895 729.643 42.88 728.08 39.53C726.74 35.9567 726.07 32.2717 726.07 28.475C726.07 24.6783 726.74 21.105 728.08 17.755C729.643 14.1817 731.653 11.1667 734.11 8.71001C736.79 6.03001 739.805 3.90835 743.155 2.34501C746.728 0.781669 750.525 0 754.545 0C758.565 0 762.25 0.781669 765.6 2.34501C769.173 3.90835 772.188 6.03001 774.645 8.71001C777.325 11.1667 779.335 14.1817 780.675 17.755C782.238 21.105 783.02 24.6783 783.02 28.475Z" fill="#1E1E1E"/>
<path d="M586.375 159.125C586.375 146.619 588.497 135.117 592.74 124.62C597.207 113.9 603.348 104.632 611.165 96.8154C618.982 88.9987 628.25 82.9687 638.97 78.7254C649.913 74.2587 661.862 72.0254 674.815 72.0254C681.962 72.0254 689.108 72.9187 696.255 74.7054C703.625 76.2687 710.325 78.8371 716.355 82.4104V128.305C704.965 120.265 693.017 116.245 680.51 116.245C674.033 116.245 668.003 117.362 662.42 119.595C657.06 121.605 652.37 124.509 648.35 128.305C644.33 132.102 641.203 136.68 638.97 142.04C636.737 147.177 635.62 152.872 635.62 159.125C635.62 165.379 636.737 171.185 638.97 176.545C641.203 181.682 644.33 186.149 648.35 189.945C652.37 193.742 657.06 196.757 662.42 198.99C668.003 201 674.033 202.005 680.51 202.005C686.987 202.005 693.352 200.889 699.605 198.655C705.858 196.199 711.553 193.072 716.69 189.275V235.505C709.99 239.302 702.955 241.982 695.585 243.545C688.438 245.332 681.292 246.225 674.145 246.225C661.415 246.225 649.69 244.104 638.97 239.86C628.25 235.617 618.982 229.699 611.165 222.105C603.348 214.512 597.207 205.355 592.74 194.635C588.497 183.915 586.375 172.079 586.375 159.125Z" fill="#1E1E1E"/>
<path d="M390.65 20.8701V241.87H341.65V20.8701H390.65Z" fill="#1E1E1E"/>
<path d="M327.86 202.34C320.937 215.964 310.887 226.684 297.71 234.5C284.757 242.317 269.235 246.225 251.145 246.225C238.192 246.225 226.355 244.104 215.635 239.86C204.915 235.617 195.647 229.699 187.83 222.105C180.237 214.289 174.207 205.02 169.74 194.3C165.497 183.58 163.375 171.855 163.375 159.125C163.375 146.619 165.497 135.117 169.74 124.62C174.207 113.9 180.237 104.632 187.83 96.8154C195.647 88.9987 204.692 82.9687 214.965 78.7254C225.462 74.2587 236.852 72.0254 249.135 72.0254C261.642 72.0254 273.032 74.2587 283.305 78.7254C293.802 82.9687 302.735 88.9987 310.105 96.8154C317.475 104.632 323.17 114.012 327.19 124.955C331.433 135.675 333.555 147.512 333.555 160.465C333.555 163.369 333.443 165.825 333.22 167.835C333.22 169.845 333.108 171.409 332.885 172.525H211.28C211.727 177.439 213.067 181.905 215.3 185.925C217.533 189.945 220.437 193.519 224.01 196.645C227.807 199.549 231.938 201.894 236.405 203.68C241.095 205.244 246.008 206.025 251.145 206.025C260.302 206.025 267.56 204.239 272.92 200.665C278.28 197.092 282.858 192.179 286.655 185.925L327.86 202.34ZM285.65 140.7C284.533 131.767 280.625 124.509 273.925 118.925C267.225 113.119 258.85 110.215 248.8 110.215C243.887 110.215 239.308 111.109 235.065 112.895C230.822 114.459 227.025 116.692 223.675 119.595C220.325 122.499 217.533 125.737 215.3 129.31C213.29 132.884 212.062 136.68 211.615 140.7H285.65Z" fill="#1E1E1E"/>
<path d="M0 76.3799H51.59L90.45 180.9L129.31 76.3799H179.56L112.225 241.87H67.335L0 76.3799Z" fill="#1E1E1E"/>
<path fill-rule="evenodd" clip-rule="evenodd" d="M523.464 77.6438C512.577 73.2315 500.807 71.0254 488.155 71.0254C487.627 71.0254 487.101 71.0292 486.576 71.0369C508.34 74.1233 515.648 77.1265 523.042 80.922C523.198 79.8078 523.338 78.7156 523.464 77.6438ZM485.895 71.0491C474.021 71.2987 462.938 73.5242 452.645 77.7254C441.702 82.1921 432.21 88.3337 424.17 96.1504C416.13 103.967 409.765 113.235 405.075 123.955C400.608 134.452 398.375 145.842 398.375 158.125C398.375 170.409 400.608 181.91 405.075 192.63C409.765 203.127 416.13 212.284 424.17 220.1C432.21 227.917 441.702 234.059 452.645 238.525C463.588 242.992 475.425 245.225 488.155 245.225C500.885 245.225 512.722 242.992 523.665 238.525C534.608 234.059 544.1 227.917 552.14 220.1C560.18 212.284 566.433 203.127 570.9 192.63C575.59 181.91 577.935 170.409 577.935 158.125C577.935 145.842 575.59 134.452 570.9 123.955C566.903 114.363 561.475 105.932 554.617 98.6641C550.254 110.386 545.551 119.164 542.67 123.958C542.32 123.72 541.963 123.473 541.593 123.218C538.271 120.924 534.028 117.993 526.925 115.244C525.754 121.864 524.016 127.929 521.91 133.451C523.629 135.886 525.107 138.528 526.345 141.375C528.578 146.512 529.695 152.095 529.695 158.125C529.695 164.155 528.578 169.739 526.345 174.875C524.112 180.012 521.097 184.479 517.3 188.275C513.727 192.072 509.372 195.087 504.235 197.32C499.098 199.554 493.738 200.67 488.155 200.67C482.348 200.67 476.877 199.554 471.74 197.32C466.827 195.087 462.472 192.072 458.675 188.275C455.102 184.479 452.198 180.012 449.965 174.875C447.732 169.739 446.615 164.155 446.615 158.125C446.615 152.095 447.732 146.512 449.965 141.375C452.198 136.239 455.102 131.772 458.675 127.975C462.472 124.179 466.827 121.164 471.74 118.93C476.877 116.697 482.348 115.58 488.155 115.58C490.82 115.58 493.434 115.835 495.997 116.343C494.564 96.8348 490.346 80.203 485.895 71.0491Z" fill="#1E1E1E"/>
<path d="M511.713 26.1168L508.907 17.0846L518.274 18.3942C538.772 21.26 550.352 24.7198 557.526 28.0973C561.177 29.8156 563.64 31.4899 565.518 32.984C566.276 33.5874 566.939 34.1632 567.445 34.6023C567.535 34.6803 567.62 34.7541 567.7 34.8229C568.284 35.3282 568.568 35.5548 568.782 35.699L571.451 37.4971L571.43 40.7152C571.152 82.1535 554.649 115.454 547.804 126.941L544.525 132.445L539.248 128.812C539.005 128.645 538.761 128.476 538.515 128.306C536.509 126.918 534.376 125.442 531.463 123.902C523.302 156.465 502.408 174.243 493.758 180.028L480.112 189.153L484.658 173.379C490.33 153.693 491.408 132.866 489.984 114.731C488.552 96.4924 484.636 81.5182 480.749 73.4828L476.583 64.8701L486.15 64.8701C497.901 64.8701 509.192 66.4393 518.531 69.2044C519.879 52.6327 516.854 42.6612 511.713 26.1168Z" fill="#1E1E1E" stroke="white" stroke-width="12"/>
</svg>
