<svg width="150" height="82" viewBox="0 0 150 82" fill="none" xmlns="http://www.w3.org/2000/svg">
<g clip-path="url(#clip0_168_200)">
<rect x="18.231" y="33.71" width="88.7628" height="44" rx="22" fill="#38C0FF"/>
<path d="M12.4891 35.0823C11.6186 36.69 9.22536 36.3834 8.78832 34.6082L1.17455 3.68137C0.74127 1.92143 2.68496 0.538903 4.20534 1.52561L32.2969 19.7566C33.9417 20.824 33.2277 23.3749 31.2678 23.4334L20.8929 23.743C19.468 23.7856 18.1735 24.5832 17.4947 25.8368L12.4891 35.0823Z" fill="#38C0FF"/>
<path d="M58.1998 49.1064L53.1198 56.0146V61.71H51.3268V55.9619L46.2379 49.1064H48.4264L52.2496 54.3975L56.0289 49.1064H58.1998ZM63.2627 61.9297C61.8623 61.9297 60.7051 61.4727 59.791 60.5586C58.8828 59.6387 58.4287 58.4785 58.4287 57.0781C58.4287 56.1582 58.6338 55.3291 59.0439 54.5908C59.4541 53.8525 60.0283 53.2754 60.7666 52.8594C61.5049 52.4375 62.3369 52.2266 63.2627 52.2266C64.6631 52.2266 65.8203 52.6865 66.7344 53.6064C67.6543 54.5264 68.1143 55.6836 68.1143 57.0781C68.1143 57.7695 67.9912 58.417 67.7451 59.0205C67.499 59.6182 67.1621 60.1309 66.7344 60.5586C66.3125 60.9805 65.7998 61.3145 65.1963 61.5605C64.5986 61.8066 63.9541 61.9297 63.2627 61.9297ZM63.2627 60.3301C64.124 60.3301 64.8447 60.0283 65.4248 59.4248C66.0107 58.8213 66.3037 58.0391 66.3037 57.0781C66.3037 56.1113 66.0107 55.3291 65.4248 54.7314C64.8447 54.1338 64.124 53.835 63.2627 53.835C62.4014 53.835 61.6807 54.1338 61.1006 54.7314C60.5205 55.3232 60.2305 56.1055 60.2305 57.0781C60.2305 58.0449 60.5205 58.8301 61.1006 59.4336C61.6865 60.0312 62.4072 60.3301 63.2627 60.3301ZM76.4642 52.4551H78.2572V61.7012H76.5521V60.6377C75.767 61.499 74.7298 61.9297 73.4408 61.9297C72.2338 61.9297 71.2816 61.5488 70.5843 60.7871C69.8871 60.0254 69.5384 58.9326 69.5384 57.5088V52.4551H71.3402V57.5088C71.3402 58.3936 71.5511 59.0938 71.973 59.6094C72.3949 60.125 72.9838 60.3828 73.7396 60.3828C74.5189 60.3828 75.1664 60.1104 75.682 59.5654C76.2035 59.0146 76.4642 58.2412 76.4642 57.2451V52.4551Z" fill="white"/>
</g>
<defs>
<clipPath id="clip0_168_200">
<rect width="150" height="82" fill="white"/>
</clipPath>
</defs>
</svg>
