<svg width="150" height="82" viewBox="0 0 150 82" fill="none" xmlns="http://www.w3.org/2000/svg">
<g clip-path="url(#clip0_168_208)">
<rect x="18.231" y="33.71" width="112" height="44" rx="22" fill="#FF4EA3"/>
<path d="M12.4891 35.0823C11.6186 36.69 9.22536 36.3834 8.78832 34.6082L1.17455 3.68137C0.74127 1.92143 2.68496 0.538903 4.20534 1.52561L32.2969 19.7566C33.9417 20.824 33.2277 23.3749 31.2678 23.4334L20.8929 23.743C19.468 23.7856 18.1735 24.5832 17.4947 25.8368L12.4891 35.0823Z" fill="#FF4EA3"/>
<path d="M48.4955 49.1064H49.9809V61.71H48.1791V52.8945L43.6703 59.9346L39.1176 52.8857V61.71H37.3334V49.1064H38.8188L43.6615 56.6387L48.4955 49.1064ZM59.9744 52.4551H61.6267V61.71H59.992V60.5762C59.0896 61.4785 57.9558 61.9297 56.5906 61.9297C55.6765 61.9297 54.8533 61.7217 54.1209 61.3057C53.3885 60.8896 52.8142 60.3125 52.3982 59.5742C51.9881 58.8359 51.783 58.0039 51.783 57.0781C51.783 55.6777 52.2371 54.5205 53.1453 53.6064C54.0535 52.6865 55.2049 52.2266 56.5994 52.2266C57.9588 52.2266 59.0838 52.6631 59.9744 53.5361V52.4551ZM54.4549 59.4336C55.0408 60.0312 55.7644 60.3301 56.6258 60.3301C57.4871 60.3301 58.2107 60.0283 58.7967 59.4248C59.3826 58.8213 59.6756 58.0391 59.6756 57.0781C59.6756 56.1172 59.3826 55.3379 58.7967 54.7402C58.2107 54.1426 57.4871 53.8438 56.6258 53.8438C55.7644 53.8438 55.0408 54.1396 54.4549 54.7314C53.8748 55.3232 53.5847 56.1055 53.5847 57.0781C53.5847 58.0449 53.8748 58.8301 54.4549 59.4336ZM68.6847 52.2354C69.9445 52.2354 70.9083 52.6104 71.5763 53.3604C72.2443 54.1045 72.5783 55.1943 72.5783 56.6299V61.71H70.7765V56.6475C70.7765 55.7393 70.5802 55.0361 70.1876 54.5381C69.8009 54.0342 69.2003 53.7822 68.3859 53.7822C67.6066 53.7822 66.9562 54.0547 66.4347 54.5996C65.9132 55.1445 65.6525 55.915 65.6525 56.9111V61.71H63.8683V52.4551H65.6525V53.4482C66.4318 52.6396 67.4425 52.2354 68.6847 52.2354ZM82.2114 52.4551H83.8638V61.71H82.229V60.5762C81.3267 61.4785 80.1929 61.9297 78.8276 61.9297C77.9136 61.9297 77.0903 61.7217 76.3579 61.3057C75.6255 60.8896 75.0513 60.3125 74.6353 59.5742C74.2251 58.8359 74.02 58.0039 74.02 57.0781C74.02 55.6777 74.4741 54.5205 75.3823 53.6064C76.2905 52.6865 77.4419 52.2266 78.8364 52.2266C80.1958 52.2266 81.3208 52.6631 82.2114 53.5361V52.4551ZM76.6919 59.4336C77.2778 60.0312 78.0015 60.3301 78.8628 60.3301C79.7241 60.3301 80.4478 60.0283 81.0337 59.4248C81.6196 58.8213 81.9126 58.0391 81.9126 57.0781C81.9126 56.1172 81.6196 55.3379 81.0337 54.7402C80.4478 54.1426 79.7241 53.8438 78.8628 53.8438C78.0015 53.8438 77.2778 54.1396 76.6919 54.7314C76.1118 55.3232 75.8218 56.1055 75.8218 57.0781C75.8218 58.0449 76.1118 58.8301 76.6919 59.4336ZM93.0663 52.4375H94.7538L94.745 60.6904C94.745 62.1436 94.3436 63.2773 93.5409 64.0918C92.7381 64.9121 91.5047 65.3223 89.8407 65.3223C89.1434 65.3223 88.4989 65.2578 87.9071 65.1289C87.3153 65.0059 86.8436 64.8682 86.4921 64.7158V62.958C86.7909 63.0869 87.0282 63.1865 87.204 63.2568C87.3856 63.3271 87.7196 63.4121 88.2059 63.5117C88.6922 63.6113 89.1932 63.6611 89.7089 63.6611C90.8924 63.6611 91.745 63.4092 92.2665 62.9053C92.788 62.4072 93.0487 61.5752 93.0487 60.4092V60.1191C92.2225 60.8691 91.2089 61.2441 90.0077 61.2441C88.7128 61.2441 87.6405 60.8193 86.7909 59.9697C85.9471 59.1201 85.5253 58.042 85.5253 56.7354C85.5253 55.4287 85.9471 54.3506 86.7909 53.501C87.6346 52.6514 88.704 52.2266 89.9989 52.2266C91.2118 52.2266 92.2342 52.6045 93.0663 53.3604V52.4375ZM88.0389 58.9238C88.578 59.4805 89.246 59.7588 90.0428 59.7588C90.8397 59.7588 91.5106 59.4775 92.0555 58.915C92.6005 58.3525 92.8729 57.626 92.8729 56.7354C92.8729 55.8389 92.6005 55.1152 92.0555 54.5645C91.5165 54.0078 90.8456 53.7295 90.0428 53.7295C89.246 53.7295 88.578 54.0049 88.0389 54.5557C87.4999 55.1064 87.2303 55.833 87.2303 56.7354C87.2303 57.6377 87.4999 58.3672 88.0389 58.9238ZM105.363 57.0518C105.363 57.251 105.345 57.4443 105.31 57.6318H98.0149C98.2551 59.3428 99.4592 60.1982 101.627 60.1982C101.838 60.1982 102.049 60.1895 102.26 60.1719C102.471 60.1543 102.658 60.1338 102.822 60.1104C102.992 60.0811 103.162 60.0459 103.332 60.0049C103.508 59.9639 103.652 59.9258 103.763 59.8906C103.88 59.8555 104.003 59.8145 104.132 59.7676C104.267 59.7148 104.363 59.6768 104.422 59.6533C104.481 59.624 104.554 59.5889 104.642 59.5479C104.736 59.5068 104.785 59.4863 104.791 59.4863V61.1914C103.737 61.6836 102.609 61.9297 101.407 61.9297C100.581 61.9297 99.8342 61.8066 99.1662 61.5605C98.4983 61.3086 97.9475 60.9629 97.5139 60.5234C97.0862 60.084 96.758 59.5771 96.5295 59.0029C96.301 58.4229 96.1867 57.7959 96.1867 57.1221C96.1867 56.2256 96.3772 55.4082 96.758 54.6699C97.1389 53.9258 97.6838 53.334 98.3928 52.8945C99.1018 52.4492 99.9045 52.2266 100.801 52.2266C102.113 52.2266 103.2 52.6777 104.062 53.5801C104.929 54.4766 105.363 55.6338 105.363 57.0518ZM100.871 53.9141C100.115 53.9141 99.4914 54.0986 98.9992 54.4678C98.5071 54.8369 98.1906 55.3789 98.05 56.0938H103.71C103.587 55.3789 103.274 54.8369 102.77 54.4678C102.266 54.0986 101.633 53.9141 100.871 53.9141ZM111.647 52.2705C111.858 52.2705 112.069 52.2881 112.28 52.3232V54.2129C111.946 54.1426 111.603 54.1074 111.252 54.1074C110.443 54.1074 109.819 54.3652 109.379 54.8809C108.946 55.3965 108.729 56.1025 108.729 56.999V61.7012H106.954L106.936 52.4463H108.729V53.6768C109.403 52.7451 110.376 52.2764 111.647 52.2705Z" fill="white"/>
</g>
<defs>
<clipPath id="clip0_168_208">
<rect width="150" height="82" fill="white"/>
</clipPath>
</defs>
</svg>
