<svg width="150" height="82" viewBox="0 0 150 82" fill="none" xmlns="http://www.w3.org/2000/svg">
<g clip-path="url(#clip0_163_171)">
<rect x="18.231" y="33.71" width="112" height="44" rx="22" fill="#FF4E6E"/>
<path d="M12.4891 35.0823C11.6186 36.69 9.22536 36.3834 8.78832 34.6082L1.17455 3.68137C0.74127 1.92143 2.68496 0.538903 4.20534 1.52561L32.2969 19.7566C33.9417 20.824 33.2277 23.3749 31.2678 23.4334L20.8929 23.743C19.468 23.7856 18.1735 24.5832 17.4947 25.8368L12.4891 35.0823Z" fill="#FF4E6E"/>
<path d="M43.9021 49.1064C45.654 49.1064 47.0515 49.6777 48.0945 50.8203C49.1374 51.9629 49.6589 53.4922 49.6589 55.4082C49.6589 57.3652 49.1462 58.9062 48.1208 60.0312C47.0954 61.1504 45.6892 61.71 43.9021 61.71H39.0329V49.1064H43.9021ZM43.8757 60.0137C45.1296 60.0137 46.0994 59.6152 46.7849 58.8184C47.4763 58.0215 47.822 56.8965 47.822 55.4434C47.822 53.9902 47.4734 52.8564 46.7761 52.042C46.0847 51.2217 45.1179 50.8115 43.8757 50.8115H40.8171V60.0137H43.8757ZM60.1974 57.0518C60.1974 57.251 60.1798 57.4443 60.1446 57.6318H52.8497C53.0899 59.3428 54.294 60.1982 56.462 60.1982C56.6729 60.1982 56.8839 60.1895 57.0948 60.1719C57.3058 60.1543 57.4933 60.1338 57.6573 60.1104C57.8272 60.0811 57.9972 60.0459 58.1671 60.0049C58.3429 59.9639 58.4864 59.9258 58.5978 59.8906C58.7149 59.8555 58.838 59.8145 58.9669 59.7676C59.1017 59.7148 59.1983 59.6768 59.2569 59.6533C59.3155 59.624 59.3888 59.5889 59.4767 59.5479C59.5704 59.5068 59.6202 59.4863 59.6261 59.4863V61.1914C58.5714 61.6836 57.4435 61.9297 56.2423 61.9297C55.4161 61.9297 54.669 61.8066 54.0011 61.5605C53.3331 61.3086 52.7823 60.9629 52.3487 60.5234C51.921 60.084 51.5929 59.5771 51.3644 59.0029C51.1358 58.4229 51.0216 57.7959 51.0216 57.1221C51.0216 56.2256 51.212 55.4082 51.5929 54.6699C51.9737 53.9258 52.5187 53.334 53.2276 52.8945C53.9366 52.4492 54.7394 52.2266 55.6358 52.2266C56.9483 52.2266 58.0353 52.6777 58.8966 53.5801C59.7638 54.4766 60.1974 55.6338 60.1974 57.0518ZM55.7062 53.9141C54.9503 53.9141 54.3263 54.0986 53.8341 54.4678C53.3419 54.8369 53.0255 55.3789 52.8849 56.0938H58.545C58.422 55.3789 58.1085 54.8369 57.6046 54.4678C57.1007 54.0986 56.4679 53.9141 55.7062 53.9141ZM65.2163 61.9209C64.3901 61.9209 63.6167 61.7832 62.896 61.5078C62.1753 61.2324 61.5717 60.8398 61.0854 60.3301L61.9379 58.9678C62.5004 59.4307 63.0249 59.7676 63.5112 59.9785C63.9975 60.1836 64.5395 60.2861 65.1372 60.2861C65.7934 60.2861 66.312 60.1777 66.6928 59.9609C67.0737 59.7383 67.2641 59.4395 67.2641 59.0645C67.2641 58.9238 67.2378 58.7979 67.185 58.6865C67.1323 58.5693 67.0415 58.4668 66.9126 58.3789C66.7895 58.291 66.6694 58.2148 66.5522 58.1504C66.435 58.0859 66.268 58.0244 66.0512 57.9658C65.8344 57.9014 65.6557 57.8516 65.5151 57.8164C65.3745 57.7812 65.1694 57.7344 64.8999 57.6758C64.6186 57.6172 64.3901 57.5674 64.2143 57.5264C64.0444 57.4795 63.8305 57.4209 63.5727 57.3506C63.3208 57.2803 63.1157 57.21 62.9575 57.1396C62.7993 57.0693 62.6235 56.9844 62.4301 56.8848C62.2368 56.7852 62.0786 56.6768 61.9555 56.5596C61.8383 56.4365 61.7241 56.2988 61.6128 56.1465C61.5073 55.9941 61.4282 55.8242 61.3754 55.6367C61.3286 55.4434 61.3051 55.2324 61.3051 55.0039C61.3051 54.1543 61.6479 53.4805 62.3335 52.9824C63.0249 52.4785 63.9126 52.2266 64.9965 52.2266C65.7465 52.2266 66.4526 52.3467 67.1147 52.5869C67.7827 52.8213 68.351 53.1318 68.8198 53.5186L68.1167 54.8545C67.5249 54.4971 67.0034 54.2363 66.5522 54.0723C66.1069 53.9082 65.6264 53.8262 65.1108 53.8262C64.519 53.8262 64.0327 53.9287 63.6518 54.1338C63.2768 54.3389 63.0893 54.5967 63.0893 54.9072C63.0893 55.0186 63.1098 55.1211 63.1508 55.2148C63.1977 55.3027 63.2739 55.3818 63.3794 55.4521C63.4907 55.5225 63.5903 55.584 63.6782 55.6367C63.7719 55.6836 63.9096 55.7305 64.0913 55.7773C64.2788 55.8242 64.4223 55.8594 64.5219 55.8828C64.6215 55.9062 64.7827 55.9385 65.0053 55.9795C65.228 56.0205 65.3745 56.0498 65.4448 56.0674C65.9956 56.1787 66.4731 56.3076 66.8774 56.4541C67.2876 56.6006 67.6626 56.7881 68.0024 57.0166C68.3481 57.2393 68.6088 57.5176 68.7846 57.8516C68.9604 58.1855 69.0483 58.5693 69.0483 59.0029C69.0483 59.8877 68.7026 60.5967 68.0112 61.1299C67.3198 61.6572 66.3881 61.9209 65.2163 61.9209ZM71.5623 50.4775C71.2401 50.4775 70.9647 50.3662 70.7362 50.1436C70.5135 49.9209 70.4022 49.6514 70.4022 49.335C70.4022 49.0127 70.5135 48.7402 70.7362 48.5176C70.9647 48.2891 71.2401 48.1748 71.5623 48.1748C71.8729 48.1748 72.1395 48.2891 72.3621 48.5176C72.5906 48.7461 72.7049 49.0186 72.7049 49.335C72.7049 49.6514 72.5906 49.9209 72.3621 50.1436C72.1395 50.3662 71.8729 50.4775 71.5623 50.4775ZM70.6571 61.71V52.4551H72.45V61.71H70.6571ZM81.6349 52.4375H83.3224L83.3137 60.6904C83.3137 62.1436 82.9123 63.2773 82.1096 64.0918C81.3068 64.9121 80.0734 65.3223 78.4094 65.3223C77.7121 65.3223 77.0676 65.2578 76.4758 65.1289C75.884 65.0059 75.4123 64.8682 75.0607 64.7158V62.958C75.3596 63.0869 75.5969 63.1865 75.7726 63.2568C75.9543 63.3271 76.2883 63.4121 76.7746 63.5117C77.2609 63.6113 77.7619 63.6611 78.2775 63.6611C79.4611 63.6611 80.3137 63.4092 80.8351 62.9053C81.3566 62.4072 81.6174 61.5752 81.6174 60.4092V60.1191C80.7912 60.8691 79.7775 61.2441 78.5763 61.2441C77.2814 61.2441 76.2092 60.8193 75.3596 59.9697C74.5158 59.1201 74.0939 58.042 74.0939 56.7354C74.0939 55.4287 74.5158 54.3506 75.3596 53.501C76.2033 52.6514 77.2726 52.2266 78.5676 52.2266C79.7804 52.2266 80.8029 52.6045 81.6349 53.3604V52.4375ZM76.6076 58.9238C77.1467 59.4805 77.8146 59.7588 78.6115 59.7588C79.4084 59.7588 80.0793 59.4775 80.6242 58.915C81.1691 58.3525 81.4416 57.626 81.4416 56.7354C81.4416 55.8389 81.1691 55.1152 80.6242 54.5645C80.0851 54.0078 79.4142 53.7295 78.6115 53.7295C77.8146 53.7295 77.1467 54.0049 76.6076 54.5557C76.0685 55.1064 75.799 55.833 75.799 56.7354C75.799 57.6377 76.0685 58.3672 76.6076 58.9238ZM90.1519 52.2354C91.4117 52.2354 92.3755 52.6104 93.0435 53.3604C93.7115 54.1045 94.0454 55.1943 94.0454 56.6299V61.71H92.2437V56.6475C92.2437 55.7393 92.0474 55.0361 91.6548 54.5381C91.2681 54.0342 90.6675 53.7822 89.8531 53.7822C89.0738 53.7822 88.4234 54.0547 87.9019 54.5996C87.3804 55.1445 87.1197 55.915 87.1197 56.9111V61.71H85.3355V52.4551H87.1197V53.4482C87.899 52.6396 88.9097 52.2354 90.1519 52.2354ZM104.663 57.0518C104.663 57.251 104.645 57.4443 104.61 57.6318H97.3153C97.5556 59.3428 98.7597 60.1982 100.928 60.1982C101.139 60.1982 101.35 60.1895 101.56 60.1719C101.771 60.1543 101.959 60.1338 102.123 60.1104C102.293 60.0811 102.463 60.0459 102.633 60.0049C102.808 59.9639 102.952 59.9258 103.063 59.8906C103.181 59.8555 103.304 59.8145 103.433 59.7676C103.567 59.7148 103.664 59.6768 103.723 59.6533C103.781 59.624 103.854 59.5889 103.942 59.5479C104.036 59.5068 104.086 59.4863 104.092 59.4863V61.1914C103.037 61.6836 101.909 61.9297 100.708 61.9297C99.8817 61.9297 99.1347 61.8066 98.4667 61.5605C97.7987 61.3086 97.2479 60.9629 96.8144 60.5234C96.3866 60.084 96.0585 59.5771 95.83 59.0029C95.6015 58.4229 95.4872 57.7959 95.4872 57.1221C95.4872 56.2256 95.6776 55.4082 96.0585 54.6699C96.4394 53.9258 96.9843 53.334 97.6933 52.8945C98.4022 52.4492 99.205 52.2266 100.101 52.2266C101.414 52.2266 102.501 52.6777 103.362 53.5801C104.229 54.4766 104.663 55.6338 104.663 57.0518ZM100.172 53.9141C99.4159 53.9141 98.7919 54.0986 98.2997 54.4678C97.8075 54.8369 97.4911 55.3789 97.3505 56.0938H103.011C102.888 55.3789 102.574 54.8369 102.07 54.4678C101.566 54.0986 100.933 53.9141 100.172 53.9141ZM110.948 52.2705C111.158 52.2705 111.369 52.2881 111.58 52.3232V54.2129C111.246 54.1426 110.904 54.1074 110.552 54.1074C109.743 54.1074 109.119 54.3652 108.68 54.8809C108.246 55.3965 108.03 56.1025 108.03 56.999V61.7012H106.254L106.237 52.4463H108.03V53.6768C108.703 52.7451 109.676 52.2764 110.948 52.2705Z" fill="white"/>
</g>
<defs>
<clipPath id="clip0_163_171">
<rect width="150" height="82" fill="white"/>
</clipPath>
</defs>
</svg>
