<svg width="50" height="24" viewBox="0 0 50 24" fill="none" xmlns="http://www.w3.org/2000/svg">
<path d="M2.92838 0C5.51626 0 7.52032 2.26514 7.20499 4.83374L6.15915 13.3528H6.49336C6.76923 13.3528 6.99204 13.3103 7.1618 13.2255C7.33156 13.1406 7.50132 12.9867 7.67108 12.7639C8.77653 11.2556 10.0215 8.41132 11.7454 7.51193C11.9894 7.38461 12.6366 7.32095 12.6366 7.32095H17.061L12.4456 13.1936C12.2334 13.4695 12 13.7135 11.7454 13.9257C11.4907 14.1379 11.2255 14.3236 10.9496 14.4827C11.1724 14.6631 11.3634 14.8753 11.5225 15.1194C11.6923 15.3528 11.8408 15.6233 11.9682 15.931L15.2785 23.8249H10.9814C8.89149 23.8249 7.89335 18.6964 7.28912 17.1565C7.17241 16.8912 7.04509 16.7215 6.90716 16.6472C6.77984 16.5623 6.56764 16.5199 6.27055 16.5199H5.76127L5.45981 18.9907C5.12312 21.7504 2.78011 23.8249 0 23.8249V23.8249L2.92838 0V0Z" fill="white"/>
<path d="M23.2363 7.49605L21.8411 19.1644C21.5112 21.9232 19.1713 24 16.3928 24V24L17.7881 12.3316C18.118 9.57285 20.4579 7.49605 23.2363 7.49605V7.49605ZM24.1594 2.97616C24.1594 3.36873 24.0745 3.74009 23.9048 4.09022C23.735 4.42974 23.5122 4.73213 23.2363 4.99738C22.9605 5.25202 22.6422 5.45892 22.2814 5.61807C21.9313 5.76661 21.5705 5.84088 21.1992 5.84088C20.8278 5.84088 20.4724 5.76661 20.1329 5.61807C19.7934 5.45892 19.491 5.25202 19.2257 4.99738C18.9711 4.73213 18.7642 4.42974 18.605 4.09022C18.4459 3.74009 18.3663 3.36873 18.3663 2.97616C18.3663 2.58359 18.4459 2.21224 18.605 1.8621C18.7642 1.51197 18.9764 1.20428 19.2416 0.939026C19.5175 0.673775 19.8252 0.466879 20.1647 0.318339C20.5042 0.159188 20.8597 0.0796121 21.231 0.0796121C21.613 0.0796121 21.979 0.153882 22.3292 0.302423C22.6793 0.450964 22.987 0.657861 23.2522 0.923113C23.5281 1.18836 23.7456 1.49606 23.9048 1.84619C24.0745 2.19632 24.1594 2.57298 24.1594 2.97616Z" fill="white"/>
<path d="M25.2893 20.069C25.2893 19.9947 25.2893 19.9045 25.2893 19.7984C25.2893 19.6923 25.2946 19.5438 25.3053 19.3528C25.3265 19.1512 25.353 18.8912 25.3848 18.5729C25.4273 18.244 25.4803 17.8143 25.544 17.2838L26.3875 10.5358L23.7137 10.4562V10.4562C23.7137 8.61919 25.203 7.12998 27.04 7.12998H27.0877L27.5388 5.74451C28.2 3.71393 30.0928 2.33953 32.2283 2.33953V2.33953L31.6236 7.16181H35.3159V7.16181C35.0796 9.08821 33.4436 10.5358 31.5028 10.5358H31.2098L30.414 17.0133C30.361 17.4483 30.3185 17.7931 30.2867 18.0477C30.2655 18.2918 30.2442 18.4828 30.223 18.6207C30.2124 18.748 30.2018 18.8382 30.1912 18.8912C30.1912 18.9337 30.1912 18.9602 30.1912 18.9708C30.1912 19.2785 30.2602 19.5385 30.3981 19.7507C30.5466 19.9522 30.7748 20.053 31.0824 20.053C31.2522 20.053 31.3901 20.0371 31.4962 20.0053C31.6129 19.9629 31.7137 19.9204 31.7986 19.878C31.8835 19.8249 31.9631 19.7825 32.0373 19.7507C32.1116 19.7082 32.1965 19.687 32.292 19.687C32.4405 19.687 32.5519 19.7241 32.6262 19.7984C32.7005 19.8621 32.7694 19.9682 32.8331 20.1167L33.9153 22.4562C33.2575 22.9337 32.5519 23.2944 31.7986 23.5385C31.0453 23.7719 30.2867 23.8886 29.5228 23.8886C28.8862 23.8886 28.3132 23.8037 27.8039 23.6339C27.2946 23.4536 26.8543 23.1989 26.483 22.87C26.1222 22.5305 25.8358 22.1273 25.6236 21.6605C25.422 21.1936 25.3106 20.6631 25.2893 20.069Z" fill="white"/>
<path d="M48.7641 9.24664C48.7217 9.58617 48.6209 9.90977 48.4617 10.2175C48.3132 10.5252 48.1487 10.7904 47.9684 11.0132L40.8384 20.1167H47.3318V20.1167C47.0774 22.2062 45.3036 23.7771 43.1986 23.7771H34.536L34.7907 21.7718C34.8119 21.5702 34.8968 21.3209 35.0453 21.0238C35.1938 20.7161 35.3742 20.4244 35.5864 20.1485L42.78 10.9336H40.197C38.2368 10.9336 36.7182 9.21898 36.9551 7.27317V7.27317H49.0188L48.7641 9.24664Z" fill="white"/>
</svg>
