<svg width="542" height="308" viewBox="0 0 542 308" fill="none" xmlns="http://www.w3.org/2000/svg">
<path d="M0.485596 206.329V0.329102H53.4856V206.329H0.485596Z" fill="#1E1E1E"/>
<path d="M302.291 207.287C288.529 206.797 276.077 204.441 264.936 200.218C253.89 195.998 242.692 189.332 231.342 180.221L254.472 147.313C272.711 159.156 289.428 165.348 304.623 165.888C311.026 166.116 316.074 165.434 319.767 163.843C323.558 162.16 325.507 159.837 325.612 156.874C325.744 153.147 322.307 150.25 315.299 148.183C313.214 147.63 308.751 146.658 301.911 145.267C280.537 140.871 264.682 134.662 254.346 126.639C244.105 118.62 239.234 107.587 239.733 93.5382C240.284 78.0561 246.828 66.2319 259.366 58.0655C271.905 49.8991 288.83 46.1946 310.141 46.9519C335.849 47.8655 358.273 55.0257 377.413 68.4325L357.693 102.323C338.434 92.2613 322.736 87.0147 310.599 86.5833C304.674 86.3728 299.96 87.0665 296.459 88.6644C293.053 90.2658 291.305 92.3088 291.217 94.7936C291.183 95.7493 291.392 96.6179 291.842 97.3994C292.296 98.0854 293.037 98.7815 294.065 99.4879C295.095 100.099 296.128 100.662 297.162 101.177C298.296 101.6 299.809 102.084 301.704 102.63C303.694 103.179 305.4 103.623 306.824 103.96C308.247 104.298 310.239 104.799 312.799 105.464C315.457 106.037 317.546 106.494 319.065 106.835C328.65 109.09 336.838 111.582 343.631 114.311C350.519 117.044 356.573 120.369 361.792 124.286C367.012 128.203 370.862 132.933 373.345 138.476C375.83 143.923 376.946 150.23 376.691 157.397C376.138 172.975 369.476 185.417 356.705 194.723C344.034 203.938 325.896 208.125 302.291 207.287Z" fill="#1E1E1E"/>
<path d="M541.486 123.181C541.486 128.081 541.007 132.933 540.05 137.737H435.712C437.817 146.768 442.458 153.206 449.634 157.049C456.905 160.796 467.478 162.67 481.351 162.67C497.808 162.67 514.791 160.171 532.3 155.175V197.258C523.02 199.949 513.93 201.966 505.032 203.311C496.229 204.657 485.37 205.329 472.453 205.329C445.854 205.329 424.853 197.979 409.449 183.279C394.14 168.482 386.486 149.122 386.486 125.198C386.486 110.018 389.499 96.2301 395.527 83.8357C401.555 71.4414 410.597 61.4491 422.652 53.8587C434.708 46.1723 448.773 42.3291 464.847 42.3291C487.81 42.3291 506.324 49.7273 520.388 64.5236C534.453 79.2239 541.486 98.7762 541.486 123.181ZM465.995 84.8446C450.591 84.8446 440.783 92.0025 436.574 106.318H496.564C494.555 99.4968 490.871 94.2124 485.513 90.4653C480.251 86.7181 473.745 84.8446 465.995 84.8446Z" fill="#1E1E1E"/>
<path d="M233.415 135.151C230.58 156.125 219.564 173.974 200.366 188.698C181.168 203.422 161.178 209.414 140.396 206.673C119.556 203.856 101.774 192.848 87.0501 173.651C72.3844 154.529 66.3841 134.606 69.0492 113.882C71.6561 93.0821 82.6343 75.2621 101.984 60.4219C121.409 45.5234 141.542 39.4826 162.382 42.2994C183.299 45.0581 201.06 55.9604 215.668 75.0065C230.334 94.1284 236.249 114.177 233.415 135.151ZM174.659 154.002C181.792 148.531 185.81 141.593 186.715 133.186C187.636 124.646 184.169 115.254 176.312 105.01C168.514 94.8417 160.467 89.1424 152.172 87.912C143.819 86.6056 136 88.7459 128.715 94.3328C121.355 99.978 117.147 107.062 116.091 115.585C115.111 124.049 118.462 133.29 126.144 143.306C133.942 153.474 142.152 159.229 150.774 160.571C159.413 161.778 167.375 159.589 174.659 154.002Z" fill="#1E1E1E"/>
<path d="M508.366 306.985C503.428 306.985 498.936 306.299 494.89 304.927C490.878 303.556 486.781 301.31 482.597 298.19L490.467 286.102C497.153 290.114 503.223 292.12 508.675 292.12C510.972 292.12 512.772 291.812 514.075 291.194C515.413 290.543 516.081 289.686 516.081 288.623C516.081 287.285 514.812 286.291 512.275 285.64C511.521 285.468 509.909 285.177 507.44 284.765C499.725 283.462 493.964 281.439 490.158 278.696C486.386 275.953 484.5 272.061 484.5 267.02C484.5 261.465 486.695 257.145 491.084 254.059C495.473 250.973 501.491 249.43 509.138 249.43C518.361 249.43 526.488 251.71 533.517 256.27L526.882 268.666C519.853 265.306 514.161 263.626 509.806 263.626C507.68 263.626 506 263.934 504.766 264.551C503.566 265.169 502.965 265.923 502.965 266.815C502.965 267.157 503.051 267.466 503.223 267.74C503.394 267.98 503.668 268.22 504.046 268.46C504.423 268.666 504.8 268.855 505.177 269.026C505.589 269.163 506.137 269.318 506.823 269.489C507.543 269.661 508.16 269.798 508.675 269.901C509.189 270.003 509.909 270.158 510.835 270.363C511.795 270.535 512.549 270.672 513.098 270.775C516.561 271.461 519.527 272.249 521.996 273.141C524.499 274.032 526.711 275.147 528.631 276.484C530.551 277.821 531.992 279.467 532.952 281.422C533.912 283.342 534.392 285.588 534.392 288.16C534.392 293.749 532.163 298.292 527.705 301.79C523.282 305.253 516.836 306.985 508.366 306.985Z" fill="#1E1E1E"/>
<path d="M472.518 299.372C467.134 304.722 460.105 307.396 451.429 307.396C442.754 307.396 435.759 304.739 430.444 299.424C425.129 294.075 422.472 287.063 422.472 278.387C422.472 269.746 425.112 262.768 430.393 257.453C435.673 252.104 442.686 249.43 451.429 249.43C460.208 249.43 467.254 252.104 472.569 257.453C477.918 262.803 480.593 269.781 480.593 278.387C480.593 287.028 477.901 294.023 472.518 299.372ZM451.687 291.915C454.91 291.915 457.567 290.817 459.659 288.623C461.785 286.394 462.848 282.965 462.848 278.336C462.848 273.741 461.802 270.363 459.71 268.203C457.619 266.009 454.927 264.911 451.635 264.911C448.309 264.911 445.566 266.009 443.406 268.203C441.28 270.398 440.217 273.758 440.217 278.284C440.217 282.879 441.297 286.308 443.457 288.571C445.652 290.8 448.395 291.915 451.687 291.915Z" fill="#1E1E1E"/>
<path d="M397.213 306.315V232.455H416.089V306.315H397.213Z" fill="#1E1E1E"/>
<path d="M385.744 240.428C383.618 242.588 381.046 243.669 378.029 243.669C375.011 243.669 372.422 242.588 370.262 240.428C368.136 238.268 367.073 235.679 367.073 232.662C367.073 229.644 368.136 227.072 370.262 224.946C372.422 222.786 375.011 221.706 378.029 221.706C381.046 221.706 383.618 222.769 385.744 224.895C387.87 227.021 388.933 229.593 388.933 232.61C388.933 235.662 387.87 238.268 385.744 240.428ZM368.565 306.316V250.612H387.441V306.316H368.565Z" fill="#1E1E1E"/>
<path d="M342.843 306.315L322.424 280.701L321.755 279.929V306.315H302.879V232.455H321.755V278.489L340.529 250.611H361.977L341.506 277.152L364.857 306.315H342.843Z" fill="#1E1E1E"/>
</svg>
