<svg xmlns="http://www.w3.org/2000/svg" width="89" height="19" fill="currentColor" class="hidden h-16 w-auto min-1280:block" data-sentry-component="MetaLogo" data-sentry-element="svg" data-sentry-source-file="MetaLogo.tsx" viewBox="0 0 89 19"><path d="M32.555 1.262h3.352l5.703 10.335 5.702-10.335h3.28v16.982h-2.735V5.229l-5 9.012H40.29l-5-9.012v13.015h-2.736zm26.861 17.285q-1.902 0-3.342-.843a5.9 5.9 0 0 1-2.245-2.335q-.806-1.492-.806-3.42 0-1.953.787-3.457t2.185-2.354q1.399-.847 3.215-.849 1.803 0 3.105.856Q63.616 7 64.318 8.54t.702 3.615v.752h-9.285q.255 1.553 1.253 2.444.999.891 2.524.891 1.224.001 2.107-.364a5.4 5.4 0 0 0 1.658-1.103l1.453 1.783q-2.167 1.99-5.314 1.99m1.997-10.074q-.86-.879-2.251-.88-1.356.001-2.27.899-.915.898-1.157 2.413h6.659q-.12-1.552-.981-2.432m6.934-.637h-2.519V5.593h2.519V1.88h2.639v3.712h3.825v2.244h-3.825v5.688q0 1.42.484 2.026.484.607 1.659.606.519 0 .883-.042t.799-.115v2.22a8 8 0 0 1-2.191.303q-4.275 0-4.273-4.682zm20.201 10.407h-2.59v-1.771a4.7 4.7 0 0 1-1.756 1.534q-1.065.54-2.421.54-1.67 0-2.96-.855-1.29-.856-2.028-2.353t-.738-3.427q0-1.94.75-3.433.75-1.491 2.077-2.34 1.325-.85 3.044-.85 1.295 0 2.324.504a4.6 4.6 0 0 1 1.707 1.425V5.593h2.59zm-2.64-8.224a3.6 3.6 0 0 0-1.337-1.704q-.914-.625-2.112-.625-1.695 0-2.7 1.14t-1.005 3.081q0 1.953.968 3.093.969 1.14 2.628 1.14 1.222 0 2.179-.63a3.56 3.56 0 0 0 1.38-1.699zM2.977 12.476c0 1.027.224 1.815.519 2.292.385.625.96.89 1.546.89.756 0 1.448-.189 2.78-2.035 1.068-1.48 2.326-3.558 3.173-4.861l1.434-2.207c.995-1.533 2.148-3.236 3.469-4.391 1.08-.943 2.243-1.466 3.414-1.466 1.967 0 3.84 1.141 5.273 3.283 1.57 2.345 2.331 5.299 2.331 8.347 0 1.813-.357 3.144-.963 4.196-.586 1.018-1.729 2.034-3.65 2.034v-2.9c1.645 0 2.056-1.515 2.056-3.25 0-2.47-.575-5.211-1.842-7.17-.898-1.39-2.063-2.24-3.345-2.24-1.386 0-2.5 1.048-3.755 2.916-.666.992-1.35 2.2-2.118 3.565l-.845 1.501c-1.699 3.018-2.13 3.705-2.979 4.84-1.488 1.985-2.76 2.738-4.433 2.738-1.985 0-3.24-.861-4.018-2.159-.635-1.058-.946-2.445-.946-4.027z" data-sentry-element="path" data-sentry-source-file="MetaLogo.tsx"/><path d="M2.367 4.186C3.696 2.133 5.614.698 7.814.698c1.274 0 2.54.377 3.863 1.46 1.447 1.182 2.988 3.13 4.912 6.34l.69 1.152c1.664 2.78 2.612 4.21 3.166 4.883.713.866 1.212 1.124 1.861 1.124 1.646 0 2.056-1.514 2.056-3.248l2.558-.08c0 1.812-.357 3.143-.964 4.195-.586 1.018-1.728 2.034-3.65 2.034-1.195 0-2.253-.26-3.423-1.366-.9-.85-1.952-2.357-2.76-3.713L13.714 9.45c-1.207-2.02-2.314-3.529-2.956-4.21-.69-.735-1.576-1.621-2.991-1.621-1.145 0-2.118.805-2.932 2.037z" data-sentry-element="path" data-sentry-source-file="MetaLogo.tsx"/><path d="M7.763 3.618c-1.144 0-2.117.805-2.93 2.037-1.152 1.74-1.856 4.332-1.856 6.821 0 1.027.224 1.815.519 2.292l-2.472 1.63C.39 15.342.078 13.955.078 12.373c0-2.875.787-5.872 2.286-8.186C3.692 2.133 5.61.698 7.81.698z" data-sentry-element="path" data-sentry-source-file="MetaLogo.tsx"/></svg>