<svg xmlns="http://www.w3.org/2000/svg" width="102" height="32" fill="currentColor" class="h-[22px] w-auto min-720:h-28" data-sentry-component="AirbnbLogo" data-sentry-element="svg" data-sentry-source-file="AirbnbLogo.tsx" viewBox="0 0 102 32"><path d="M53.523 7.94a2.07 2.07 0 0 1-4.14 0c0-1.132.879-2.058 2.07-2.058 1.19.026 2.07.952 2.07 2.058m-8.49 4.117v.515s-.983-1.26-3.08-1.26c-3.442 0-6.16 2.624-6.16 6.226s2.666 6.227 6.16 6.227c2.123 0 3.08-1.286 3.08-1.286v.54a.42.42 0 0 0 .441.438h2.562V11.62h-2.562a.45.45 0 0 0-.44.437m0 7.59c-.465.696-1.423 1.288-2.562 1.288-2.018 0-3.571-1.262-3.571-3.397s1.553-3.397 3.571-3.397c1.113 0 2.122.618 2.562 1.287zm4.918-8.027h3.055v11.837H49.95zm45.423-.309c-2.096 0-3.08 1.26-3.08 1.26V5.934h-3.053v17.55h2.562c.259 0 .44-.232.44-.438v-.54s.983 1.285 3.08 1.285c3.442 0 6.159-2.65 6.159-6.226.027-3.603-2.692-6.253-6.108-6.253m-.492 9.598c-1.165 0-2.096-.592-2.562-1.287v-4.22c.467-.617 1.502-1.286 2.562-1.286 2.02 0 3.572 1.26 3.572 3.396s-1.552 3.397-3.572 3.397m-7.195-4.477v7.05h-3.054v-6.69c0-1.955-.62-2.753-2.355-2.753-.932 0-1.863.463-2.459 1.157v8.26h-3.055V11.62h2.408c.26 0 .44.231.44.437v.515c.88-.927 2.07-1.26 3.235-1.26 1.321 0 2.433.385 3.34 1.13 1.086.876 1.5 2.009 1.5 3.99m-18.299-5.12c-2.096 0-3.08 1.26-3.08 1.26V5.933h-3.054v17.55h2.562c.26 0 .441-.232.441-.438v-.54s.984 1.285 3.08 1.285c3.442 0 6.16-2.65 6.16-6.226.052-3.603-2.64-6.253-6.109-6.253m-.49 9.597c-1.166 0-2.097-.592-2.563-1.287v-4.22c.466-.617 1.5-1.286 2.562-1.286 2.018 0 3.571 1.26 3.571 3.396s-1.553 3.397-3.57 3.397m-8.257-9.598c.931 0 1.398.154 1.398.154v2.805s-2.537-.85-4.116.953v8.285H54.87V11.62h2.563a.45.45 0 0 1 .439.437v.515c.596-.669 1.837-1.26 2.77-1.26m-31.576 11.09c-.156-.386-.311-.798-.466-1.131-.26-.567-.518-1.107-.725-1.597l-.026-.025a288 288 0 0 0-7.014-14.23l-.103-.18a20 20 0 0 1-.751-1.492c-.31-.566-.62-1.158-1.139-1.724C17.831.762 16.382.066 14.83.066c-1.578 0-3.002.696-4.063 1.88a11 11 0 0 0-1.14 1.722c-.258.515-.516 1.005-.75 1.493l-.103.18c-2.433 4.735-4.815 9.521-7.014 14.23l-.026.051c-.232.515-.465 1.03-.724 1.595a18 18 0 0 0-.467 1.133C.128 23.508 0 24.614.154 25.747c.337 2.367 1.942 4.348 4.116 5.223a6.8 6.8 0 0 0 2.562.515c.259 0 .57-.026.828-.052a8.1 8.1 0 0 0 3.158-1.08c1.294-.722 2.536-1.776 3.934-3.269 1.397 1.518 2.666 2.547 3.934 3.268 1.035.592 2.122.952 3.158 1.081.259.026.569.052.828.052.88 0 1.786-.155 2.562-.515 2.226-.875 3.779-2.908 4.116-5.223.258-1.081.129-2.188-.286-3.346m-14.288 1.622c-1.707-2.136-2.82-4.17-3.209-5.867-.155-.72-.181-1.364-.103-1.93a2.7 2.7 0 0 1 .518-1.313c.595-.848 1.604-1.389 2.794-1.389s2.226.515 2.796 1.39c.259.386.44.823.517 1.312.104.566.053 1.235-.102 1.93-.389 1.698-1.503 3.705-3.21 5.867m12.631 1.492a4.65 4.65 0 0 1-2.873 3.68c-.75.308-1.579.41-2.407.308a6.1 6.1 0 0 1-2.407-.823c-1.139-.618-2.277-1.596-3.624-3.062 2.097-2.547 3.365-4.89 3.832-6.974a7.4 7.4 0 0 0 .154-2.676 5 5 0 0 0-.854-2.136c-.983-1.415-2.639-2.238-4.477-2.238s-3.495.849-4.478 2.238c-.44.619-.724 1.364-.854 2.136a6.4 6.4 0 0 0 .156 2.676c.465 2.085 1.786 4.452 3.83 7-1.294 1.44-2.459 2.418-3.623 3.062-.829.463-1.605.72-2.407.823a5 5 0 0 1-2.408-.31c-1.552-.617-2.666-2.057-2.872-3.679-.104-.797-.026-1.57.284-2.444.104-.31.26-.617.414-1.003.234-.515.466-1.03.725-1.57l.026-.052a340 340 0 0 1 6.962-14.152l.103-.18c.26-.463.518-.978.752-1.44.258-.516.543-.978.88-1.39.672-.746 1.552-1.158 2.535-1.158s1.864.412 2.537 1.158c.336.412.62.874.88 1.39.259.462.517.977.75 1.44l.104.18a396 396 0 0 1 6.936 14.179v.025c.26.514.466 1.08.725 1.57.155.386.311.694.414 1.003.311.798.414 1.595.285 2.419" data-sentry-element="path" data-sentry-source-file="AirbnbLogo.tsx"/></svg>