<svg xmlns="http://www.w3.org/2000/svg" width="136" height="34" fill="currentColor" class="h-20 w-auto min-720:h-24" data-sentry-component="PinterestLogo" data-sentry-element="svg" data-sentry-source-file="PinterestLogo.tsx" viewBox="0 0 136 34"><path d="M53.216 12.357h4.264v13.397h-4.264zm5.154 0h4.107v1.832h.079c.994-1.44 2.276-2.224 4.133-2.224 2.93 0 4.656 2.093 4.656 5.076v8.713h-4.264v-7.85c0-1.413-.706-2.38-2.092-2.38-1.413 0-2.355 1.177-2.355 2.825v7.405H58.37zm-.464-3.584a2.558 2.558 0 1 0-5.117 0 2.558 2.558 0 0 0 5.117 0m43.428 3.391a5 5 0 0 0-.424-.016c-1.622 0-2.72.706-3.662 2.303h-.079v-2.094h-4.08v13.397h4.263v-6.018c0-2.788 1.544-4.08 3.982-3.855zm20.925 5.139c-1.7-.314-3.218-.445-3.218-1.387 0-.838.812-1.23 1.858-1.23 1.177 0 1.988.366 2.145 1.57h3.924c-.209-2.643-2.25-4.291-6.043-4.291-3.165 0-5.781 1.465-5.781 4.291 0 3.14 2.485 3.768 4.813 4.16 1.779.314 3.401.445 3.401 1.649 0 .863-.811 1.334-2.093 1.334-1.286 0-2.136-.544-2.397-1.648h-4.063c.299 2.754 2.716 4.422 6.486 4.422 3.506 0 6.095-1.518 6.095-4.448 0-3.428-2.773-4.03-5.127-4.422M107.949 15c1.386 0 2.38 1.02 2.537 2.617h-5.284c.288-1.597 1.125-2.617 2.747-2.617m.235 8.085c-1.753 0-2.747-1.125-3.008-2.93h9.626c.027-2.722-.758-5.05-2.354-6.516-1.151-1.046-2.668-1.674-4.578-1.674-4.081 0-6.88 3.061-6.88 7.065 0 4.055 2.721 7.117 7.142 7.117 1.7 0 3.06-.445 4.185-1.23 1.177-.811 1.962-1.962 2.25-3.166h-4.159c-.367.837-1.099 1.334-2.224 1.334m26.712-.49c-.198.008-.463.02-.707.02-.915 0-1.491-.262-1.491-1.309v-6.28h2.198v-2.669h-2.198V8.118h-4.159v4.24h-1.309v2.668h1.309v7.196c0 2.878 1.779 3.69 4.264 3.69.948 0 1.665-.072 2.093-.155zm-55.936.006c-.17.007-.366.013-.55.013-.915 0-1.491-.261-1.491-1.308v-6.28h2.04v-2.669h-2.04V8.118h-4.16v4.24h-1.386v2.668h1.387v7.196c0 2.878 1.778 3.69 4.264 3.69.84 0 1.499-.057 1.936-.128z" data-sentry-element="path" data-sentry-source-file="PinterestLogo.tsx"/><path d="M88.248 17.617C88.09 16.02 87.097 15 85.71 15c-1.622 0-2.459 1.02-2.747 2.617zm-9.496 1.413c0-4.004 2.799-7.065 6.88-7.065 1.91 0 3.426.628 4.578 1.675 1.595 1.465 2.38 3.793 2.354 6.515h-9.627c.262 1.805 1.256 2.93 3.009 2.93 1.124 0 1.857-.497 2.223-1.334h4.16c-.288 1.204-1.073 2.355-2.25 3.166-1.125.785-2.485 1.23-4.186 1.23-4.42 0-7.141-3.062-7.141-7.117M45.81 15.837c1.675 0 2.617-.994 2.617-2.486 0-1.49-.968-2.407-2.616-2.407h-3.27v4.893zm-7.586-8.791h7.405c2.275 0 3.95.627 5.1 1.726 1.204 1.126 1.884 2.722 1.884 4.606 0 3.584-2.485 6.123-6.33 6.123H42.54v6.253h-4.317zM16.272.86C7.38.86.173 8.068.173 16.961c0 6.822 4.244 12.654 10.232 15-.14-1.274-.268-3.233.056-4.624.293-1.257 1.888-8.004 1.888-8.004s-.482-.965-.482-2.391c0-2.24 1.298-3.91 2.913-3.91 1.374 0 2.037 1.03 2.037 2.268 0 1.381-.88 3.447-1.333 5.361-.38 1.603.803 2.91 2.384 2.91 2.861 0 5.06-3.018 5.06-7.374 0-3.856-2.77-6.551-6.724-6.551-4.58 0-7.27 3.436-7.27 6.988 0 1.384.534 2.868 1.199 3.675.131.16.15.299.111.462-.122.508-.393 1.602-.447 1.826-.07.295-.233.357-.538.215-2.01-.936-3.268-3.876-3.268-6.238 0-5.08 3.69-9.745 10.637-9.745 5.585 0 9.925 3.98 9.925 9.3 0 5.55-3.498 10.017-8.354 10.017-1.631 0-3.165-.848-3.69-1.85 0 0-.807 3.075-1.003 3.828-.363 1.4-1.344 3.152-2 4.222a16.1 16.1 0 0 0 4.766.718c8.891 0 16.099-7.21 16.099-16.103S25.163.86 16.27.86" data-sentry-element="path" data-sentry-source-file="PinterestLogo.tsx"/></svg>