<svg xmlns="http://www.w3.org/2000/svg" width="58" height="20" fill="currentColor" class="h-[14px] w-auto min-720:h-20" data-sentry-component="UberLogo" data-sentry-element="svg" data-sentry-source-file="UberLogo.tsx" viewBox="0 0 58 20"><path d="M3.635 14.284q.365.969 1.011 1.657t1.531 1.053 1.924.366a4.8 4.8 0 0 0 1.896-.38 4.7 4.7 0 0 0 1.545-1.067 4.8 4.8 0 0 0 1.026-1.643q.365-.956.365-2.135V0h2.95v19.663H12.96v-1.826a6.8 6.8 0 0 1-2.318 1.601Q9.308 20 7.764 20a7.8 7.8 0 0 1-2.935-.548 6.9 6.9 0 0 1-2.36-1.559 7.4 7.4 0 0 1-1.573-2.43Q.32 14.047.32 12.304V0h2.95v12.135q0 1.18.365 2.149M20.97 0v7.163a7.5 7.5 0 0 1 2.275-1.56 6.8 6.8 0 0 1 2.81-.575q1.571 0 2.949.59a7.5 7.5 0 0 1 2.387 1.601 7.5 7.5 0 0 1 1.601 2.388q.59 1.376.59 2.921 0 1.546-.59 2.907a7.6 7.6 0 0 1-1.6 2.374 7.5 7.5 0 0 1-2.388 1.601 7.4 7.4 0 0 1-2.95.59 6.9 6.9 0 0 1-2.823-.576 7.5 7.5 0 0 1-2.29-1.559v1.798h-2.808V0zm.323 14.466q.38.9 1.053 1.573.675.675 1.573 1.068.9.393 1.939.393 1.01 0 1.91-.393a4.9 4.9 0 0 0 1.559-1.068 5.2 5.2 0 0 0 1.053-1.573q.393-.899.393-1.938 0-1.04-.393-1.952a5.2 5.2 0 0 0-1.053-1.587q-.66-.674-1.56-1.054a4.9 4.9 0 0 0-1.91-.379q-1.01 0-1.91.38a4.9 4.9 0 0 0-1.573 1.053 5 5 0 0 0-1.067 1.587 4.9 4.9 0 0 0-.393 1.952q0 1.04.379 1.938m13.886-4.831q.562-1.348 1.545-2.374a7.2 7.2 0 0 1 5.253-2.205q1.545 0 2.865.562t2.275 1.56a7.1 7.1 0 0 1 1.489 2.359q.534 1.362.533 2.963v.927H37.483q.14.87.562 1.615.422.744 1.053 1.292.633.549 1.433.857.8.31 1.7.31 2.556 0 4.129-2.108l2.05 1.517a7.6 7.6 0 0 1-2.64 2.247q-1.573.815-3.54.815a7.9 7.9 0 0 1-2.991-.562 7.3 7.3 0 0 1-2.416-1.573 7.5 7.5 0 0 1-1.615-2.373q-.59-1.363-.59-2.964 0-1.516.562-2.865m3.947-1.11q-1.194.998-1.587 2.655h8.736q-.366-1.657-1.56-2.655t-2.795-.997-2.794.997m15.32.323q-.9.983-.899 2.669v8.146h-2.837V5.337h2.809v1.77q.535-.87 1.39-1.377.857-.505 2.037-.505h.983v2.64h-1.18q-1.404 0-2.303.983" data-sentry-element="path" data-sentry-source-file="UberLogo.tsx"/></svg>