<svg xmlns="http://www.w3.org/2000/svg" width="80" height="18" fill="currentColor" class="hidden h-[18px] w-auto min-720:block" data-sentry-component="MetalabWordLogo" data-sentry-element="svg" data-sentry-source-file="MetalabWordLogo.tsx" viewBox="0 0 80 18"><path d="M.5.969h5.306l4.015 15.522L13.816.969h5.306v15.813h-2.684V1.28l-4.078 15.5H7.262L3.184 1.28v15.5H.5zm25.537 16.063q-1.686 0-2.934-.75a4.96 4.96 0 0 1-1.914-2.08q-.666-1.332-.666-3.038t.666-3.038a4.96 4.96 0 0 1 1.935-2.06q1.248-.749 2.913-.749 1.644 0 2.871.729a4.7 4.7 0 0 1 1.914 2.018q.687 1.31.687 3.038 0 .394-.062.832h-8.282q.147 1.603.916 2.434.77.832 1.977.832 1.04 0 1.643-.436.604-.438.916-1.29h2.642q-.519 1.768-1.872 2.663t-3.35.895m2.809-6.908q-.063-.896-.437-1.56a2.6 2.6 0 0 0-.978-1.041q-.603-.375-1.394-.375-1.165 0-1.914.75-.729.748-.937 2.226zm8.704 6.658q-1.062 0-1.894-.354a2.9 2.9 0 0 1-1.31-1.061q-.48-.729-.48-1.79V7.482h-2.204V5.567h2.206V2.904h2.6v2.663h2.664v1.914h-2.663v5.972q0 .77.374 1.082t1.145.312h1.186v1.935zm6.29.25a4.1 4.1 0 0 1-1.935-.458 3.7 3.7 0 0 1-1.394-1.311 3.57 3.57 0 0 1-.499-1.873q0-1.206.666-1.914a3.94 3.94 0 0 1 1.685-1.02c.746-.223 1.513-.37 2.289-.436l2.975-.312V9.52q0-.666-.27-1.206a1.9 1.9 0 0 0-.77-.854q-.52-.312-1.27-.312-.998 0-1.601.52a2.04 2.04 0 0 0-.708 1.249h-2.621q.125-1.102.77-1.914.665-.811 1.726-1.249 1.082-.437 2.435-.437 1.665 0 2.767.583 1.103.583 1.623 1.56.52.979.52 2.164v7.158h-2.58v-2.226a5.6 5.6 0 0 1-.853 1.352 3.5 3.5 0 0 1-1.207.832q-.707.292-1.748.292m-1.185-3.642q0 .624.29 1.082.293.437.791.687.499.229 1.103.229.895 0 1.519-.437.646-.458.957-1.207c.215-.55.32-1.137.312-1.727v-.666l-2.018.208q-.936.105-1.54.27a2.3 2.3 0 0 0-.998.521q-.416.354-.416 1.04M52.01.969h2.6v15.813h-2.6zm8.189 16.063a4.1 4.1 0 0 1-1.935-.458 3.7 3.7 0 0 1-1.394-1.311 3.57 3.57 0 0 1-.5-1.873q0-1.206.666-1.914a3.94 3.94 0 0 1 1.686-1.02c.746-.223 1.512-.37 2.288-.436l2.976-.312V9.52q0-.666-.27-1.206a1.9 1.9 0 0 0-.77-.854q-.52-.312-1.27-.312-.999 0-1.602.52c-.38.317-.63.76-.707 1.249h-2.622q.125-1.102.77-1.914.666-.811 1.727-1.249 1.081-.437 2.434-.437 1.664 0 2.768.583t1.622 1.56q.52.979.52 2.164v7.158h-2.58v-2.226a5.6 5.6 0 0 1-.853 1.352 3.5 3.5 0 0 1-1.206.832q-.708.292-1.748.292m-1.187-3.642q0 .624.291 1.082.291.437.79.687.5.229 1.104.229.894 0 1.519-.437a2.74 2.74 0 0 0 .957-1.207 4.6 4.6 0 0 0 .312-1.727v-.666l-2.018.208q-.937.105-1.54.27a2.3 2.3 0 0 0-.999.521q-.416.354-.416 1.04m15.786 3.642q-.833 0-1.603-.333a4.2 4.2 0 0 1-1.331-.937 4.6 4.6 0 0 1-.916-1.373v2.393h-2.58V.969h2.58v7.24q.27-.79.791-1.435.541-.666 1.31-1.061.771-.396 1.749-.396 1.352 0 2.413.75 1.082.748 1.685 2.08.604 1.332.604 3.017 0 1.686-.604 3.038-.603 1.332-1.685 2.08-1.061.75-2.413.75m-3.933-5.868q0 1.227.354 2.143t1.02 1.415q.686.479 1.622.479.958 0 1.623-.479.687-.5 1.02-1.394.353-.916.353-2.164 0-1.227-.353-2.122-.333-.915-1.02-1.394-.666-.5-1.623-.5-.936 0-1.623.5-.665.478-1.02 1.394-.353.895-.353 2.122" data-sentry-element="path" data-sentry-source-file="MetalabWordLogo.tsx"/></svg>