<svg xmlns="http://www.w3.org/2000/svg" width="82" height="22" fill="currentColor" class="h-[18px] w-auto min-720:h-[22px]" data-sentry-component="RampLogo" data-sentry-element="svg" data-sentry-source-file="RampLogo.tsx" viewBox="0 0 82 22"><path d="M5.894 7.44c-1.937 0-2.888 1.732-2.888 4.045v5.795H.273V5.05h2.685v3.173h.046c.574-1.95 1.716-3.527 3.478-3.527 1.24 0 1.763.44 1.763.44L7.01 7.653s-.393-.214-1.117-.214m33.03 1.68v8.16h-2.662v-7.168c0-2.057-.636-3.146-2.261-3.146-1.683 0-2.497 1.378-2.497 4.02v6.292h-2.637v-7.166c0-1.977-.629-3.146-2.238-3.146-1.836 0-2.543 1.632-2.543 4.02v6.292h-2.684V5.05h2.684v2.77h.024c.418-1.917 1.56-3.1 3.486-3.1 1.91 0 3.154 1.041 3.626 2.887.45-1.776 1.647-2.887 3.486-2.887 2.566 0 4.216 1.632 4.216 4.4m-25.31-4.424c-2.47 0-4.086 1.177-4.823 3.3l2.274.84c.415-1.282 1.279-2.012 2.598-2.012 1.483 0 2.355.663 2.355 1.68 0 1.04-.694 1.258-2.261 1.515-1.743.284-5.889.378-5.889 3.925 0 2.079 1.713 3.643 4.287 3.643 1.934 0 3.252-.803 3.862-2.295h.024v1.987h2.661V9.758c0-3.29-1.633-5.062-5.087-5.062m2.473 6.827c0 2.564-1.25 4.211-3.25 4.211-1.413 0-2.26-.804-2.26-1.964 0-1.088.87-1.844 2.543-2.155 1.71-.319 2.572-.712 2.967-1.656zM48.392 4.72c-2.036 0-3.382 1.135-3.957 2.84V5.05h-2.827v16.937h2.803V14.77h.024c.623 1.847 1.922 2.863 3.956 2.863 3.227 0 5.535-2.696 5.535-6.505 0-3.783-2.309-6.408-5.535-6.408m-.696 10.644c-2.234 0-3.474-1.645-3.474-4.2 0-2.554 1.387-4.198 3.474-4.198 2.086 0 3.474 1.724 3.474 4.199 0 2.476-1.387 4.199-3.474 4.199m33.992 1.86v.076l-10.94.004v-.08c1.578-.904 2.667-1.825 3.647-2.786h4.491zm-2.71-14.452L76.204.013h-.08s.046 5.142-4.61 9.818c-4.555 4.577-9.912 4.587-9.912 4.587v.08l2.824 2.807s5.28.053 9.943-4.587c4.647-4.624 4.608-9.946 4.608-9.946" data-sentry-element="path" data-sentry-source-file="RampLogo.tsx"/></svg>