<svg xmlns="http://www.w3.org/2000/svg" width="155" height="34" fill="currentColor" class="hidden h-[26px] w-auto min-1280:block" data-sentry-component="HeadspaceLogo" data-sentry-element="svg" data-sentry-source-file="HeadspaceLogo.tsx" viewBox="0 0 155 34"><path d="M41.974 6.978h2.613v7.227c1.084-1.584 2.502-2.335 4.253-2.335 2.39 0 3.752 1.307 3.752 3.892v8.867H49.98v-8.172c0-1.78-.667-2.307-1.973-2.307-.806 0-1.585.472-2.307 1.417-.723.945-1.112 2.196-1.112 3.753v5.31h-2.613zm23.795 12.121h-8.95c0 1.973 1.14 3.474 3.113 3.474 1.417 0 2.696-.778 3.307-2.112l2.224.862c-1.278 2.473-2.752 3.558-5.531 3.558-4.142 0-5.893-3.503-5.893-6.477s1.723-6.477 5.893-6.477c4.03 0 5.81 3.28 5.81 6.06v1.112zm-8.867-2.168h6.115c-.222-1.585-1.279-2.725-3.058-2.725-1.667-.055-2.751 1.085-3.057 2.725M86.2 11.87q.916 0 1.918.5c.667.334 1.14.668 1.473 1.085V6.978h2.613V24.63H89.59v-1.445c-.5.806-1.89 1.668-3.447 1.668-3.697 0-5.643-2.391-5.643-6.477.056-4.003 2.002-6.505 5.699-6.505m-2.92 6.477c0 1.279.307 2.307.89 3.058.584.75 1.39 1.112 2.335 1.112s1.724-.39 2.335-1.112c.584-.779.89-1.78.89-3.058 0-1.279-.306-2.307-.89-3.03-.583-.778-1.39-1.14-2.335-1.14s-1.723.39-2.335 1.14c-.583.723-.89 1.78-.89 3.03m18.876-4.503-1.64 1.445c-.584-.778-1.334-1.14-2.196-1.14-.695 0-1.25.473-1.25 1.252 0 .278.138.556.333.778.444.445.834.612 1.918 1.029.861.333 1.25.472 1.945.917 1.001.583 1.474 1.362 1.585 2.696a3.74 3.74 0 0 1-1.195 2.835c-.807.779-1.835 1.14-3.17 1.14-2.418 0-4.085-1.557-4.892-3.363l2.196-1.196c.668 1.53 1.585 2.28 2.78 2.28 1.14 0 1.696-.528 1.696-1.64 0-.445-.167-.723-.64-1.001a5 5 0 0 0-.639-.361c-.39-.167-1.306-.5-1.696-.667-1.806-.751-2.724-1.89-2.724-3.447a3.25 3.25 0 0 1 1.112-2.53c.723-.695 1.64-1.056 2.78-1.056 1.5.055 2.891.806 3.697 2.03m8.367 10.979c-1.473 0-2.752-.695-3.391-1.584v6.477h-2.613V12.067h2.613v1.417c.5-.806 1.89-1.64 3.446-1.64 3.697 0 5.643 2.39 5.643 6.477 0 4.03-1.973 6.504-5.698 6.504m2.918-6.448c0-1.28-.305-2.308-.889-3.03-.584-.779-1.39-1.14-2.335-1.14s-1.723.39-2.335 1.14c-.584.75-.889 1.75-.889 3.03 0 1.278.305 2.307.889 3.057s1.39 1.112 2.335 1.112 1.723-.39 2.335-1.112c.611-.778.889-1.807.889-3.058m28.575 3.003c-1.029 2.334-2.835 3.474-5.448 3.474-1.891 0-3.392-.611-4.42-1.835-1.029-1.25-1.529-2.78-1.529-4.642s.5-3.39 1.529-4.614c1.028-1.25 2.502-1.862 4.42-1.862 2.64 0 4.419 1.14 5.448 3.474l-2.335 1.001c-.639-1.445-1.696-2.168-3.113-2.168-2.113 0-3.169 1.668-3.169 4.197s1.056 4.198 3.169 4.198c1.445 0 2.474-.723 3.113-2.169zm12.592-2.28h-8.95c0 1.973 1.139 3.474 3.113 3.474a3.62 3.62 0 0 0 3.308-2.112l2.224.862c-1.279 2.473-2.752 3.558-5.532 3.558-4.142 0-5.893-3.503-5.893-6.477s1.724-6.477 5.893-6.477c4.031 0 5.81 3.28 5.81 6.06v1.112zm-8.867-2.168h6.115c-.222-1.585-1.278-2.725-3.057-2.725-1.668-.055-2.752 1.085-3.058 2.725M72.94 11.9q.916 0 1.918.5c.667.334 1.14.667 1.473 1.084v-1.39h2.613v12.592h-2.169l-.444-1.445c-.5.806-1.89 1.668-3.447 1.668-3.697 0-5.643-2.39-5.643-6.477 0-4.03 1.974-6.532 5.698-6.532m-2.947 6.477c0 1.278.306 2.307.89 3.057.583.75 1.39 1.112 2.335 1.112s1.723-.39 2.334-1.112c.584-.778.89-1.779.89-3.058s-.306-2.307-.89-3.03c-.583-.778-1.39-1.14-2.335-1.14s-1.723.39-2.335 1.14c-.583.723-.889 1.752-.889 3.03m53.149-6.476q.918 0 1.918.5c.667.334 1.14.667 1.474 1.084v-1.39h2.612v12.592h-2.168l-.444-1.445c-.501.806-1.891 1.668-3.447 1.668-3.697 0-5.643-2.39-5.643-6.477 0-4.03 1.974-6.532 5.698-6.532m-2.946 6.477c0 1.278.306 2.307.889 3.057.584.75 1.39 1.112 2.335 1.112s1.724-.39 2.335-1.112c.584-.778.89-1.779.89-3.058s-.306-2.307-.89-3.03c-.583-.778-1.39-1.14-2.335-1.14s-1.723.39-2.335 1.14c-.583.723-.889 1.752-.889 3.03m-86.282-1.612c.39 5.337-2.112 8.367-3.613 10.48-2.335 2.446-5.282 5.781-12.815 5.976-6.393.25-9.506-2.558-12.12-4.948C1.92 24.519 1.03 22.296.892 16.792c-.028-3.391 1.306-6.755 3.585-9.73C7.673 2.56 12.816 1.032 17.513.698c4.948-.166 8.895 2.308 11.591 4.976 3.392 3.586 4.476 6.671 4.81 11.091" data-sentry-element="path" data-sentry-source-file="HeadspaceLogo.tsx"/></svg>